<?xml version="1.0" encoding="UTF-8"?>
<svg version="1.1" xmlns="http://www.w3.org/2000/svg" width="1024" height="1024">
<path d="M0 0 C69.85326274 -1.62072535 140.95320006 13.01116836 204.47851562 42.06640625 C205.64866211 42.60136719 206.81880859 43.13632813 208.02441406 43.6875 C225.07763894 51.53347947 241.46137151 60.25345152 257.47851562 70.06640625 C258.33123047 70.58444824 259.18394531 71.10249023 260.0625 71.63623047 C286.17281891 87.54880345 309.94341628 106.45797189 332.47851562 127.06640625 C332.98237793 127.52515137 333.48624023 127.98389648 334.00537109 128.45654297 C343.28010038 136.90660423 352.48895602 145.40748251 360.65039062 154.9609375 C362.78872433 157.42367653 365.00936162 159.80127968 367.22851562 162.19140625 C372.47743096 167.95492112 377.27926958 174.00116421 382.0234375 180.18310547 C383.47716753 182.06466141 384.95198165 183.9278532 386.43164062 185.7890625 C406.52844079 211.28018278 422.86942836 239.14250832 437.47851562 268.06640625 C437.9208252 268.94022949 438.36313477 269.81405273 438.81884766 270.71435547 C464.83457072 322.53877993 479.57653496 380.40742082 484.47851562 438.06640625 C484.57277832 439.14897705 484.66704102 440.23154785 484.76416016 441.34692383 C485.66583821 453.01470237 485.72189995 464.68161285 485.72851562 476.37890625 C485.72952774 477.99670486 485.72952774 477.99670486 485.7305603 479.64718628 C485.63452296 576.87018422 455.32990562 673.94368824 398.47851562 753.06640625 C397.90359375 753.87045898 397.32867188 754.67451172 396.73632812 755.50292969 C390.1546786 764.67484629 383.40656156 773.61673128 376.00195312 782.140625 C373.53169864 785.00474359 371.15653791 787.92805849 368.79101562 790.87890625 C365.52101878 794.9008275 362.0783874 798.57976599 358.36132812 802.1875 C356.54884683 803.99622096 354.88642426 805.86616106 353.22851562 807.81640625 C346.59298809 815.51483293 339.26241048 822.71472303 331.52539062 829.30078125 C329.02136713 831.46074045 326.59853865 833.70128618 324.16601562 835.94140625 C253.90619658 899.8576575 161.29606437 939.82738677 19.47851562 955.06640625 C18.64642578 955.08832031 17.81433594 955.11023438 16.95703125 955.1328125 C-52.89623149 956.75353785 -123.99616881 942.12164414 -187.52148438 913.06640625 C-188.69163086 912.53144531 -189.86177734 911.99648438 -191.06738281 911.4453125 C-208.12060769 903.59933303 -224.50434026 894.87936098 -240.52148438 885.06640625 C-241.37419922 884.54836426 -242.22691406 884.03032227 -243.10546875 883.49658203 C-269.21578766 867.58400905 -292.98638503 848.67484061 -315.52148438 828.06640625 C-316.02534668 827.60766113 -316.52920898 827.14891602 -317.04833984 826.67626953 C-326.32306913 818.22620827 -335.53192477 809.72532999 -343.69335938 800.171875 C-345.83169308 797.70913597 -348.05233037 795.33153282 -350.27148438 792.94140625 C-355.52039971 787.17789138 -360.32223833 781.13164829 -365.06640625 774.94970703 C-366.52013628 773.06815109 -367.9949504 771.2049593 -369.47460938 769.34375 C-389.57140954 743.85262972 -405.91239711 715.99030418 -420.52148438 687.06640625 C-420.96379395 686.19258301 -421.40610352 685.31875977 -421.86181641 684.41845703 C-447.87753947 632.59403257 -462.61950371 574.72539168 -467.52148438 517.06640625 C-467.61574707 515.98383545 -467.71000977 514.90126465 -467.80712891 513.78588867 C-468.70880696 502.11811013 -468.7648687 490.45119965 -468.77148438 478.75390625 C-468.77215912 477.67537384 -468.77283386 476.59684143 -468.77352905 475.48562622 C-468.67749171 378.26262828 -438.37287437 281.18912426 -381.52148438 202.06640625 C-380.9465625 201.26235352 -380.37164062 200.45830078 -379.77929688 199.62988281 C-373.19764735 190.45796621 -366.44953031 181.51608122 -359.04492188 172.9921875 C-356.57466739 170.12806891 -354.19950666 167.20475401 -351.83398438 164.25390625 C-348.56398753 160.231985 -345.12135615 156.55304651 -341.40429688 152.9453125 C-339.59181558 151.13659154 -337.92939301 149.26665144 -336.27148438 147.31640625 C-329.63595684 139.61797957 -322.30537923 132.41808947 -314.56835938 125.83203125 C-312.06433588 123.67207205 -309.6415074 121.43152632 -307.20898438 119.19140625 C-236.94916533 55.275155 -144.33903312 15.30542573 0 0 Z " fill="#FEFEFE" transform="translate(503.521484375,39.93359375)"/>
<path d="M0 0 C9.84190419 5.09373278 18.21411318 13.21411318 26 21 C27.66326093 21.29806935 29.33638774 21.54138205 31.01171875 21.76171875 C42.16535213 23.30460405 53.13251215 25.00367699 64 28 C65.29490356 28.355177 65.29490356 28.355177 66.6159668 28.7175293 C76.28526782 31.4921492 85.15600381 35.3630255 93.9375 40.25 C95.24944336 40.97896484 95.24944336 40.97896484 96.58789062 41.72265625 C108.03089283 48.17157497 117.53815581 55.98613409 127 65 C127.68191406 65.6290625 128.36382813 66.258125 129.06640625 66.90625 C133.16163127 70.79075874 136.2997809 75.06789463 139.421875 79.765625 C141.83059805 83.17599526 144.19525169 85.27621021 147.87890625 87.234375 C148.63018799 87.63978516 149.38146973 88.04519531 150.15551758 88.46289062 C151.34697388 89.10000977 151.34697388 89.10000977 152.5625 89.75 C159.36181062 93.46298915 165.82032981 97.30784331 172 102 C173.03511719 102.77085937 174.07023437 103.54171875 175.13671875 104.3359375 C181.21353318 108.90110213 187.02711013 113.64599873 192.6171875 118.8046875 C194.18512758 120.24924869 195.77346653 121.6720283 197.3828125 123.0703125 C214.79158782 138.24001704 229.98885635 156.888134 241.4375 176.9375 C244.85274489 182.44354115 249.54319341 185.86156685 254.70703125 189.58203125 C273.6743021 203.25149005 291.41518813 224.51351775 301 246 C301 246.99 301 247.98 301 249 C301.66 249 302.32 249 303 249 C306.62312241 257.19248985 309.94015192 265.36003452 312.82421875 273.84375 C315.2367568 280.31993188 317.00153339 283.38244135 323 287 C324.25545442 287.90862336 325.4997298 288.83282775 326.734375 289.76953125 C327.38575439 290.26227539 328.03713379 290.75501953 328.70825195 291.26269531 C329.38202881 291.77413086 330.05580566 292.28556641 330.75 292.8125 C335.98672988 296.76497427 341.25531384 300.64054155 346.65625 304.3671875 C349.23725364 306.1652867 351.77520378 308.01577432 354.3125 309.875 C358.21321398 312.72279399 362.14965198 315.50735641 366.125 318.25 C406.23846061 345.93259082 406.23846061 345.93259082 410 361 C411.72803757 376.785332 405.68009104 388.38810691 396.08984375 400.390625 C382.94052364 414.57290657 361.16826771 422.59568718 343 428 C343.36426756 430.68477322 343.81467545 431.82037112 345.78735352 433.73242188 C346.56006592 434.30541016 347.33277832 434.87839844 348.12890625 435.46875 C348.99136963 436.11642334 349.85383301 436.76409668 350.74243164 437.43139648 C351.6730542 438.11403564 352.60367676 438.7966748 353.5625 439.5 C354.51181396 440.20906494 355.46112793 440.91812988 356.43920898 441.64868164 C358.37293667 443.09186632 360.30986789 444.53076862 362.25 445.96533203 C365.37541076 448.27775864 368.48309245 450.6128984 371.58862305 452.9519043 C374.13900222 454.8713919 376.69564854 456.78242838 379.25244141 458.69335938 C382.88666902 461.41065278 386.51490962 464.13593421 390.14453125 466.859375 C392.07818309 468.30895257 394.0131183 469.7568195 395.94921875 471.203125 C401.18449506 475.11760611 406.39144211 479.06387403 411.5625 483.0625 C415.4155232 486.04047971 419.29800533 488.96658553 423.25 491.8125 C428.80239541 495.81670924 434.22947049 499.97588448 439.65991211 504.14282227 C443.86191691 507.36652808 448.07424007 510.57408606 452.3125 513.75 C453.25480469 514.45640625 454.19710937 515.1628125 455.16796875 515.890625 C457.12286608 517.34668646 459.0842339 518.7940868 461.05078125 520.234375 C479.72097544 533.99385738 479.72097544 533.99385738 482 541 C482.44337985 545.59512913 482.37026969 550.19808038 482.375 554.8125 C482.39949219 556.05837891 482.42398438 557.30425781 482.44921875 558.58789062 C482.49040029 571.52575735 482.49040029 571.52575735 478 577 C473.7159737 581.01407581 468.37747552 583.49105298 463.125 586 C458.6629371 588.15476777 454.37333051 590.33560156 450.1875 593 C445.24382433 595.75904185 440.52080052 596.08804098 435 595 C431.52783691 593.53124428 428.87996844 591.41186211 426 589 C425.45375977 588.54415527 424.90751953 588.08831055 424.34472656 587.61865234 C421.31272176 585.07777001 418.30926531 582.50715875 415.33203125 579.90234375 C414.77596191 579.4213623 414.21989258 578.94038086 413.64697266 578.44482422 C412.54172227 577.4752316 411.45277462 576.48675967 410.38037109 575.48095703 C408.67550203 573.88106062 408.67550203 573.88106062 406 572 C403.67828408 572.03375833 403.67828408 572.03375833 402 573 C399.04253591 581.69635275 398.67108133 590.13741738 398.625 599.25 C398.61146484 600.3622998 398.59792969 601.47459961 398.58398438 602.62060547 C398.6154743 608.478606 399.11981852 613.31802832 401.20703125 618.79199219 C408.11656743 638.03147654 408.64880448 660.56516858 400.25 679.3125 C395.97613322 687.0054602 390.00156534 693.71104777 383 699 C382.113125 699.680625 381.22625 700.36125 380.3125 701.0625 C376.28790216 703.41651006 372.12948029 705.1238463 367.8046875 706.8515625 C365.11411856 707.90016945 365.11411856 707.90016945 363.09399414 709.00708008 C359.44113215 710.73917635 355.50945262 711.2860987 351.5625 712.0625 C350.73556641 712.23587891 349.90863281 712.40925781 349.05664062 712.58789062 C336.92117644 715.01126947 324.69014826 715.14960092 312.35501099 715.14717102 C310.81338214 715.15047875 309.27175414 715.15420619 307.73012722 715.1583125 C303.52831135 715.1682368 299.32650976 715.17203364 295.12468386 715.17470181 C290.5790933 715.17863341 286.03351375 715.18820928 281.4879303 715.19691467 C270.52985367 715.21659534 259.57177624 715.22673296 248.61368638 715.23564246 C243.44043342 715.24003772 238.26718146 715.24540115 233.09392929 715.25063133 C215.87668381 715.26763249 198.65943893 715.28212513 181.44218636 715.28938007 C176.98326746 715.29128963 172.52434857 715.29321002 168.06542969 715.29516602 C166.95733381 715.29564976 165.84923793 715.2961335 164.70756339 715.2966319 C146.76958518 715.30492684 128.83167376 715.33025974 110.89372469 715.36274669 C92.43670821 715.39589875 73.9797256 715.41383603 55.52267921 715.41702431 C45.17604856 715.41918149 34.82951543 715.4278138 24.48291397 715.45348549 C15.66963968 715.47530384 6.85648664 715.48318845 -1.95681159 715.47351871 C-6.44378656 715.46900652 -10.93051193 715.47067817 -15.41745186 715.49028015 C-38.58920709 715.58589337 -61.10996979 715.01877881 -83.125 706.875 C-84.19919189 706.48957031 -85.27338379 706.10414063 -86.38012695 705.70703125 C-116.07112794 694.78822104 -147.95728948 678.06968558 -164.99609375 650.26953125 C-166 648 -166 648 -166 644 C-166.66 644 -167.32 644 -168 644 C-169.68392974 636.92672794 -170.31101346 630.2606013 -170.25 623 C-170.26160156 621.61941406 -170.26160156 621.61941406 -170.2734375 620.2109375 C-170.24174301 608.95939179 -167.27807237 599.34402761 -163.5 588.8125 C-159.97690758 578.9925604 -159.97690758 578.9925604 -157 569 C-156.79761719 568.29101562 -156.59523437 567.58203125 -156.38671875 566.8515625 C-154.06538829 555.73731364 -157.18001749 545.22446564 -163.015625 535.83203125 C-168.14164146 528.51635815 -173.98212123 523.86046015 -182 520 C-182 519.34 -182 518.68 -182 518 C-165.69056589 516.64714371 -147.84256612 520.43045444 -135 531 C-134.30261719 531.54785156 -133.60523438 532.09570312 -132.88671875 532.66015625 C-122.78169141 541.58789885 -115.39158583 556.72143325 -114 570 C-113.68692397 576.48971003 -113.54519786 582.98222911 -113.58984375 589.47900391 C-113.54374337 596.95782986 -113.42365771 601.59213168 -108 607 C-104.57216696 608.57354142 -104.57216696 608.57354142 -101 608 C-97.17101392 604.34119108 -94.2712795 600.57213997 -93.70947266 595.24536133 C-93.34979686 570.18988155 -95.00038784 548.60292757 -113.1484375 529.6015625 C-117.14571299 525.67784027 -121.58576579 522.63680298 -126.25 519.5625 C-127.94598161 518.42156691 -129.64129855 517.27964515 -131.3359375 516.13671875 C-132.14385742 515.59450684 -132.95177734 515.05229492 -133.78417969 514.49365234 C-143.05387292 508.24508654 -151.55607809 501.29842863 -160 494 C-160.81210938 493.31292969 -161.62421875 492.62585938 -162.4609375 491.91796875 C-166.07979784 488.8305024 -169.05683576 485.75507161 -172 482 C-173.14275391 481.12601563 -173.14275391 481.12601563 -174.30859375 480.234375 C-177.28942259 477.75972464 -179.56607189 475.0169838 -181.875 471.9375 C-182.52299561 471.08357666 -182.52299561 471.08357666 -183.18408203 470.21240234 C-187.09528762 464.99504275 -190.62548307 459.57883847 -194 454 C-194.70125 452.906875 -195.4025 451.81375 -196.125 450.6875 C-202.99695663 438.36537087 -205.39423108 424.71977824 -205.375 410.8125 C-205.3747583 409.17462524 -205.3747583 409.17462524 -205.37451172 407.50366211 C-205.08757807 387.08757807 -205.08757807 387.08757807 -199 381 C-198.4121875 379.515 -198.4121875 379.515 -197.8125 378 C-192.20095775 364.50424088 -180.73013787 353.85698055 -167.56640625 347.8984375 C-156.43085551 343.98545251 -144.59140229 345.09682807 -134 350 C-125.16870519 354.74642718 -116.17602205 360.45847298 -109.28515625 367.8359375 C-106.4387524 370.80065153 -104.87153653 371.90361831 -100.6796875 372.3671875 C-97.42995296 372.37420637 -94.23823487 372.26295441 -91 372 C-91.4125 371.53851562 -91.825 371.07703125 -92.25 370.6015625 C-96.33556153 365.98706666 -100.2212031 361.2574176 -104.0078125 356.39453125 C-108.82133875 350.60886147 -113.46820082 347.43185021 -120.125 344.125 C-154.05608657 326.72576076 -184.88365037 298.21028755 -198.83203125 261.9765625 C-199.79258755 259.52858958 -200.83705869 257.18052147 -201.94140625 254.796875 C-204.15068601 249.8598163 -205.67854429 244.82917928 -207.125 239.625 C-207.50205078 238.32175781 -207.50205078 238.32175781 -207.88671875 236.9921875 C-208.63669318 234.33782773 -209.33062796 231.67576105 -210 229 C-210.30562866 227.83150513 -210.30562866 227.83150513 -210.61743164 226.6394043 C-212.61547876 217.69825418 -212.26583012 208.55528061 -212.20581055 199.44555664 C-212.18738883 196.54499641 -212.18530249 193.64475367 -212.18554688 190.74414062 C-212.18063639 188.89322641 -212.17481013 187.04231434 -212.16796875 185.19140625 C-212.16685593 184.32786026 -212.1657431 183.46431427 -212.16459656 182.57460022 C-212.15821671 181.76953537 -212.15183685 180.96447052 -212.14526367 180.13500977 C-212.14145187 179.43094498 -212.13764008 178.72688019 -212.13371277 178.0014801 C-211.993008 175.8953402 -211.52713279 174.03998182 -211 172 C-210.65415335 167.15814686 -211.07180734 163.56565263 -212.5 158.9375 C-218.27696163 137.21170171 -212.08517613 118.08228247 -201.35986328 99.28320312 C-197.95450671 93.56562779 -194.08249477 88.2479249 -190 83 C-189.44183594 82.2575 -188.88367188 81.515 -188.30859375 80.75 C-179.56099115 69.87578724 -166.75923928 60.64017777 -153 58 C-150.22180539 57.72014162 -147.47841671 57.66695731 -144.6875 57.6875 C-143.57773804 57.68943359 -143.57773804 57.68943359 -142.44555664 57.69140625 C-137.19349248 57.78289566 -132.56095094 58.55712911 -127.58984375 60.34375 C-123.99307251 61.25514905 -120.70667924 61.09413789 -117 61 C-116.93268677 60.0255896 -116.93268677 60.0255896 -116.86401367 59.03149414 C-116.65052801 56.04083392 -116.41913029 53.05180749 -116.1875 50.0625 C-116.08211914 48.53012695 -116.08211914 48.53012695 -115.97460938 46.96679688 C-115.02638846 35.09507103 -112.00621903 25.96083849 -102.75 18.0625 C-96.83531728 13.62648796 -90.10080908 14.36114748 -83 15 C-76.30427719 17.2796125 -71.06462045 23.09487908 -67.8125 29.24609375 C-66.76734749 32.78855778 -67.03740392 35.94274328 -67.375 39.5625 C-68.1339562 49.38088157 -68.09159975 59.1581156 -68 69 C-64.6291089 67.87636963 -64.28811123 67.35886523 -62.44140625 64.5 C-61.73854492 63.41525391 -61.73854492 63.41525391 -61.02148438 62.30859375 C-60.54001953 61.54675781 -60.05855469 60.78492188 -59.5625 60 C-59.08490234 59.26910156 -58.60730469 58.53820312 -58.11523438 57.78515625 C-53.45681118 50.51315954 -50.12003546 43.14788318 -47.8125 34.8125 C-47.32716797 33.08966797 -47.32716797 33.08966797 -46.83203125 31.33203125 C-45.21572648 24.85922387 -44.75191611 18.5692491 -44.65820312 11.921875 C-44.44974857 6.84140119 -43.15705074 3.94340102 -40 0 C-29.40088108 -9.56505854 -11.98284807 -5.23128508 0 0 Z " fill="#030202" transform="translate(408,163)"/>
<path d="M0 0 C1.6394458 -0.00821777 1.6394458 -0.00821777 3.31201172 -0.01660156 C10.00001709 0.04237735 16.11673369 0.83532825 22.625 2.3125 C24.78889091 2.66340123 26.95532417 2.99935091 29.125 3.3125 C31.29181312 3.64488 33.45848817 3.97816176 35.625 4.3125 C36.50414062 4.44269531 37.38328125 4.57289063 38.2890625 4.70703125 C48.32950068 6.41231202 57.03296673 11.44737496 65.99609375 16.078125 C68.23907735 17.13129412 70.20669216 17.83226866 72.625 18.3125 C72.625 18.9725 72.625 19.6325 72.625 20.3125 C73.91277344 20.64894531 73.91277344 20.64894531 75.2265625 20.9921875 C79.13838266 22.51195211 81.90251263 24.69370656 85 27.4375 C85.85198975 28.17891235 85.85198975 28.17891235 86.72119141 28.93530273 C94.84776484 36.06657322 103.01949703 43.52129818 107.64453125 53.515625 C110.5184597 59.51538001 115.12639035 61.22646955 121.10546875 63.41113281 C122.94193561 64.05464123 124.78336283 64.68394123 126.625 65.3125 C128.29617734 65.96777743 129.96501982 66.62935431 131.625 67.3125 C131.625 67.9725 131.625 68.6325 131.625 69.3125 C132.47707031 69.54839844 133.32914063 69.78429687 134.20703125 70.02734375 C138.02900316 71.46440519 141.06043308 73.46786858 144.3125 75.875 C144.9219043 76.31900146 145.53130859 76.76300293 146.15917969 77.22045898 C170.05560837 94.78676993 200.43552677 120.69063549 210.53515625 149.94921875 C211.96520461 153.05021966 213.7371746 154.18724731 216.5625 156.0625 C217.43777344 156.65546875 218.31304688 157.2484375 219.21484375 157.859375 C221.63137263 159.4363027 221.63137263 159.4363027 224.625 160.3125 C225.81022816 161.44922238 226.98901972 162.59380534 228.12597656 163.77880859 C229.82149609 165.51354046 231.58408161 167.15624256 233.3671875 168.80078125 C234.04136719 169.42533203 234.71554687 170.04988281 235.41015625 170.69335938 C236.79333316 171.9718285 238.1787214 173.24790971 239.56640625 174.52148438 C257.78481425 191.43857752 269.68551872 211.91948613 277.625 235.3125 C277.99625 236.36308594 278.3675 237.41367187 278.75 238.49609375 C282.54197765 250.70152181 281.85987583 263.69063441 281.625 276.3125 C279.37298951 273.5480607 278.04300462 271.14583144 276.9765625 267.75 C276.69627197 266.87682129 276.41598145 266.00364258 276.12719727 265.10400391 C275.69298462 263.72220947 275.69298462 263.72220947 275.25 262.3125 C271.3088746 250.18516771 266.64897322 238.93897921 260.515625 227.765625 C259.45714566 225.83236935 258.4127019 223.89066091 257.421875 221.921875 C248.74217882 204.95112575 234.58235634 189.82153777 219.625 178.3125 C218.73683594 177.61640625 217.84867188 176.9203125 216.93359375 176.203125 C214.83789936 174.56330154 212.73551711 172.93316869 210.625 171.3125 C211.04910156 171.77398437 211.47320313 172.23546875 211.91015625 172.7109375 C222.54650509 184.53949248 230.23637611 197.66181805 236.3125 212.3125 C236.78494141 213.42367187 237.25738281 214.53484375 237.74414062 215.6796875 C245.59067448 234.38811324 247.90372076 252.56176605 247.9375 272.75 C247.94099457 273.41928528 247.94448914 274.08857056 247.9480896 274.77813721 C247.97527123 284.15594442 247.19127692 293.07532133 245.625 302.3125 C244.965 302.3125 244.305 302.3125 243.625 302.3125 C243.4290625 301.51070313 243.233125 300.70890625 243.03125 299.8828125 C237.61220233 279.28108816 227.85026828 257.44177779 212.625 242.3125 C212.73110596 243.37368042 212.73110596 243.37368042 212.83935547 244.45629883 C213.5675272 252.32093748 213.77662841 260.10467611 213.75 268 C213.75386719 269.15822266 213.75773437 270.31644531 213.76171875 271.50976562 C213.75204438 280.02805078 213.72273527 288.2583883 210.625 296.3125 C209.965 296.3125 209.305 296.3125 208.625 296.3125 C208.2626123 295.64307373 207.90022461 294.97364746 207.52685547 294.28393555 C205.85141457 291.18919418 204.17570851 288.09459647 202.5 285 C201.93023438 283.94748047 201.36046875 282.89496094 200.7734375 281.81054688 C197.06961831 274.97110803 193.35376655 268.13837018 189.625 261.3125 C189.74093506 261.91199463 189.85687012 262.51148926 189.97631836 263.12915039 C190.50678209 265.87743499 191.03465935 268.62621045 191.5625 271.375 C191.74490234 272.31794922 191.92730469 273.26089844 192.11523438 274.23242188 C192.29248047 275.15732422 192.46972656 276.08222656 192.65234375 277.03515625 C192.89585571 278.29984741 192.89585571 278.29984741 193.14428711 279.59008789 C194.32549591 286.27960505 194.79670281 292.68290296 194.828125 299.4609375 C194.83382507 300.43173248 194.83952515 301.40252747 194.84539795 302.40274048 C194.85481436 304.4551689 194.86136852 306.50761221 194.86523438 308.56005859 C194.87486163 311.64318642 194.90588487 314.72562423 194.9375 317.80859375 C195.01477485 332.21802938 193.73640242 345.44488695 189.625 359.3125 C188.965 358.9825 188.305 358.6525 187.625 358.3125 C187.09423828 355.91430664 187.09423828 355.91430664 186.6953125 352.72265625 C186.5418335 351.55452393 186.38835449 350.3863916 186.23022461 349.18286133 C186.07175049 347.92626709 185.91327637 346.66967285 185.75 345.375 C184.53595181 336.29685293 183.17432399 327.37270212 181.04638672 318.46435547 C180.09925423 314.48933873 179.30914235 310.54536552 178.68676758 306.50219727 C176.74602884 294.038612 173.14230957 281.9847985 169.65380859 269.88183594 C169.00221668 267.62121094 168.35602772 265.35901571 167.71728516 263.09472656 C159.55017344 232.41751685 159.55017344 232.41751685 142.625 206.3125 C140.04085574 205.34343173 140.04085574 205.34343173 137.625 205.3125 C136.21043249 206.50578582 136.21043249 206.50578582 136.40893555 209.94262695 C136.46762295 214.12104216 137.47614621 217.34946632 139.08203125 221.23046875 C139.61841081 222.56266071 140.1543611 223.89502558 140.68994141 225.22753906 C141.11741669 226.27028992 141.11741669 226.27028992 141.55352783 227.33410645 C147.00908771 240.70122636 151.67759271 254.21398176 155.75 268.0625 C155.97724762 268.82815277 156.20449524 269.59380554 156.43862915 270.38265991 C159.2677057 279.95281189 161.66447638 289.52168809 163.625 299.3125 C164.01546509 301.10324951 164.01546509 301.10324951 164.41381836 302.93017578 C166.25283654 311.55075037 167.38273428 320.07416754 168.13305664 328.84130859 C168.31544047 330.97184944 168.50931765 333.10111875 168.70507812 335.23046875 C169.70751497 346.36277238 169.70751497 346.36277238 169.625 351.3125 C167.34426386 348.42800267 165.58912844 345.51491271 163.91796875 342.2421875 C163.41330078 341.2625 162.90863281 340.2828125 162.38867188 339.2734375 C161.86853516 338.25507812 161.34839844 337.23671875 160.8125 336.1875 C157.3916445 329.49320228 153.89640474 322.92718951 149.9152832 316.54638672 C148.16700598 313.51956806 146.93371953 310.38139164 145.703125 307.1171875 C144.35111031 303.59998986 142.86819712 300.14662369 141.375 296.6875 C140.85421875 295.47835938 140.3334375 294.26921875 139.796875 293.0234375 C139.41015625 292.12882812 139.0234375 291.23421875 138.625 290.3125 C138.6971875 291.0446875 138.769375 291.776875 138.84375 292.53125 C139.53653252 300.61371277 139.73520143 308.64038398 139.75 316.75 C139.75676758 318.29494141 139.75676758 318.29494141 139.76367188 319.87109375 C139.75340761 325.12639646 139.54247619 330.13531292 138.625 335.3125 C128.76863626 325.96746819 122.18438088 313.92968401 115.9375 302 C115.40825928 300.99146973 114.87901855 299.98293945 114.33374023 298.94384766 C110.625 291.70616997 110.625 291.70616997 110.625 288.3125 C90.32796485 304.23381069 83.64672704 331.06134719 80.63720703 355.62988281 C80.27073918 358.85507287 79.93583432 362.081459 79.625 365.3125 C77.34765854 361.89648781 76.17933704 358.41451694 74.875 354.5625 C70.03630682 340.62570062 64.37121123 327.42510368 57.625 314.3125 C57.56030518 315.27438232 57.49561035 316.23626465 57.42895508 317.22729492 C57.17905043 320.86144077 56.9021848 324.49314995 56.61791992 328.12475586 C56.49944786 329.68445102 56.38789604 331.24469034 56.28393555 332.80541992 C55.32388162 347.09598335 52.52875902 360.26120215 42.625 371.3125 C41.965 371.3125 41.305 371.3125 40.625 371.3125 C39.965 369.3325 39.305 367.3525 38.625 365.3125 C37.965 365.3125 37.305 365.3125 36.625 365.3125 C35.86316406 363.75402344 35.86316406 363.75402344 35.0859375 362.1640625 C30.53715319 352.88436938 30.53715319 352.88436938 25.375 343.9375 C23.51727998 340.94902297 22.03821511 338.05873736 20.79296875 334.76953125 C18.48471584 328.86327958 15.85279259 323.12719266 13.1875 317.375 C12.25113585 315.34512876 11.31493706 313.31518123 10.37890625 311.28515625 C9.92531738 310.30305176 9.47172852 309.32094727 9.00439453 308.30908203 C6.86040946 303.65151164 4.7412422 298.98272844 2.625 294.3125 C3.8563144 303.37366305 5.65907994 312.14743372 7.9375 321 C8.24582764 322.2166333 8.55415527 323.4332666 8.87182617 324.68676758 C10.82221964 332.33395005 12.84062298 339.9602331 15.02661133 347.54370117 C18.8069989 360.72603725 21.92452036 376.18639156 15.98828125 389.20703125 C12.28528895 394.92597924 9.12892433 398.02562034 2.9375 401 C2.32825684 401.29398682 1.71901367 401.58797363 1.09130859 401.89086914 C-3.92150637 404.24732624 -8.99749782 406.01149141 -14.375 407.3125 C-1.96433195 414.00516392 8.54107574 416.71624627 22.625 417.3125 C18.31939282 421.13873796 13.67053859 423.45971406 8.5 425.875 C7.65195801 426.27267578 6.80391602 426.67035156 5.93017578 427.08007812 C-8.10953235 433.52981219 -21.52863118 434.56299288 -36.8125 434.625 C-37.87174683 434.63092163 -37.87174683 434.63092163 -38.95239258 434.63696289 C-50.17276673 434.66625226 -60.61843317 433.65898746 -71.375 430.3125 C-70.80910156 431.42109375 -70.24320313 432.5296875 -69.66015625 433.671875 C-68.91905825 435.13530903 -68.17818456 436.59885667 -67.4375 438.0625 C-67.06431641 438.79210937 -66.69113281 439.52171875 -66.30664062 440.2734375 C-65.94892578 440.98242188 -65.59121094 441.69140625 -65.22265625 442.421875 C-64.7277771 443.39592285 -64.7277771 443.39592285 -64.22290039 444.38964844 C-61.47469504 450.62197361 -61.5721705 457.65507427 -62.375 464.3125 C-64.28945001 468.26346227 -66.72851357 470.4587663 -70.58984375 472.4609375 C-86.46807709 477.31571291 -103.86244553 470.28393894 -118.375 464.3125 C-118.375 463.6525 -118.375 462.9925 -118.375 462.3125 C-119.15101563 462.27640625 -119.92703125 462.2403125 -120.7265625 462.203125 C-126.07661446 460.8971166 -130.16391273 458.04424607 -134.75 455.0625 C-135.72227539 454.43641846 -136.69455078 453.81033691 -137.69628906 453.1652832 C-146.42622276 447.45089669 -154.51338109 441.15971647 -162.375 434.3125 C-163.32761719 433.48878906 -164.28023438 432.66507813 -165.26171875 431.81640625 C-167.671958 429.68668489 -170.02995539 427.51355064 -172.375 425.3125 C-173.13039062 424.63316406 -173.88578125 423.95382812 -174.6640625 423.25390625 C-188.39254811 410.39819378 -197.0430311 392.40273306 -198.6953125 373.68359375 C-199.11346956 360.31650638 -196.15267207 348.25649212 -188.375 337.3125 C-187.75625 336.384375 -187.1375 335.45625 -186.5 334.5 C-181.38075189 329.23018577 -175.40504631 326.20993146 -168.0625 325.8125 C-155.07330033 325.96918516 -144.39621546 334.76395301 -135.375 343.3125 C-133.52583741 345.23810435 -131.783014 347.19700011 -130.08203125 349.25390625 C-128.0878364 351.65880484 -125.98615331 353.94724622 -123.875 356.25 C-121.16332059 359.25286646 -118.57163665 362.27819134 -116.125 365.5 C-110.86880446 372.37907619 -105.10723844 378.83052324 -99.375 385.3125 C-98.83536621 385.92883301 -98.29573242 386.54516602 -97.73974609 387.18017578 C-87.6630949 398.64416975 -76.72419702 409.44912122 -62.375 415.3125 C-61.70984375 415.62832031 -61.0446875 415.94414063 -60.359375 416.26953125 C-48.01260799 421.42972586 -32.93048363 418.15142497 -20.375 415.3125 C-21.15194214 414.92094727 -21.15194214 414.92094727 -21.94458008 414.52148438 C-31.98811434 409.43005562 -41.57761468 404.40014613 -50.375 397.3125 C-51.00148438 396.8484375 -51.62796875 396.384375 -52.2734375 395.90625 C-61.57599084 388.66625373 -70.07695128 376.97024124 -71.66894531 365.12548828 C-72.76028728 353.02355231 -71.22928638 343.79935426 -63.58203125 334.01953125 C-58.06430418 327.95571985 -50.43877395 322.65681781 -42.1875 321.4375 C-40.7953125 321.375625 -40.7953125 321.375625 -39.375 321.3125 C-39.05789063 322.02792969 -38.74078125 322.74335937 -38.4140625 323.48046875 C-34.40838584 332.03402692 -29.32287373 339.02459147 -23.375 346.3125 C-24.35862264 343.36163209 -25.57982678 340.75973825 -26.95703125 337.97265625 C-27.47716797 336.90853516 -27.99730469 335.84441406 -28.53320312 334.74804688 C-29.61989866 332.53231703 -30.71091468 330.31869992 -31.80664062 328.10742188 C-35.27760999 320.98190174 -38.03041152 313.87787553 -40.375 306.3125 C-40.72401367 305.29389893 -41.07302734 304.27529785 -41.43261719 303.22583008 C-42.20618008 300.83439849 -42.7833199 298.61149573 -43.19140625 296.140625 C-43.31580078 295.39296875 -43.44019531 294.6453125 -43.56835938 293.875 C-43.69017578 293.111875 -43.81199219 292.34875 -43.9375 291.5625 C-44.06318359 290.81484375 -44.18886719 290.0671875 -44.31835938 289.296875 C-46.1798376 277.91359457 -46.64710143 266.64187239 -46.6875 255.125 C-46.69111542 254.33302216 -46.69473083 253.54104431 -46.69845581 252.72506714 C-46.72313077 239.23807461 -45.40443266 226.48099436 -42.375 213.3125 C-42.03682079 211.64680984 -41.70042453 209.98072893 -41.375 208.3125 C-47.86839376 218.5992853 -52.44469781 228.10197065 -54.7578125 240.109375 C-55.22665609 242.54261387 -55.7650784 244.87066205 -56.4375 247.25 C-58.81076366 256.73106174 -59.52371608 266.3273246 -59.5078125 276.0625 C-59.50955978 276.89870377 -59.51130707 277.73490753 -59.5131073 278.59645081 C-59.51650622 282.04693153 -59.51423566 285.49576702 -59.45410156 288.94580078 C-59.23078183 303.56234973 -59.23078183 303.56234973 -62.02270508 307.83276367 C-64.0476356 309.56927253 -66.10665564 310.9175317 -68.375 312.3125 C-70.34988934 314.30999791 -72.0336871 316.44102847 -73.8125 318.625 C-74.24498047 319.14900391 -74.67746094 319.67300781 -75.12304688 320.21289062 C-76.73627268 322.18461105 -78.23201023 324.02652045 -79.375 326.3125 C-82.96605036 324.88001499 -84.28833324 323.32763068 -86.14453125 319.97265625 C-86.63775879 319.08320312 -87.13098633 318.19375 -87.63916016 317.27734375 C-88.40558838 315.84068359 -88.40558838 315.84068359 -89.1875 314.375 C-89.71649902 313.3953125 -90.24549805 312.415625 -90.79052734 311.40625 C-95.25336619 302.94200992 -98.77137331 294.29375826 -101.74951172 285.20947266 C-102.3059558 283.52189633 -102.90769677 281.84940818 -103.515625 280.1796875 C-104.45271444 277.05321638 -104.78313968 274.19040477 -105 270.9375 C-105.11214844 269.34808594 -105.11214844 269.34808594 -105.2265625 267.7265625 C-105.27554688 266.92992187 -105.32453125 266.13328125 -105.375 265.3125 C-106.633125 264.94125 -107.89125 264.57 -109.1875 264.1875 C-120.3750044 260.40015452 -129.32972721 253.67546728 -138.375 246.3125 C-139.19097656 245.66410156 -140.00695312 245.01570312 -140.84765625 244.34765625 C-147.43696488 238.85075505 -152.34406002 232.20247208 -157.375 225.3125 C-156.73326628 232.37157094 -154.99218829 238.94147715 -153.0625 245.75 C-152.76666016 246.83087891 -152.47082031 247.91175781 -152.16601562 249.02539062 C-150.57025684 254.70877341 -148.78815226 260.07495822 -146.21801758 265.39477539 C-145.35936814 267.34805988 -144.83270006 269.23212425 -144.375 271.3125 C-148.04410998 270.744275 -149.61978235 269.36870402 -152.125 266.6875 C-154.69815715 263.95216908 -157.35586937 261.45594228 -160.21484375 259.02734375 C-164.28855774 255.48966964 -167.7772308 251.67303422 -171.1875 247.5 C-172.08480835 246.40401489 -172.08480835 246.40401489 -173.00024414 245.28588867 C-182.55273958 233.35003355 -189.83361537 220.08182858 -196.375 206.3125 C-196.931875 205.23935547 -196.931875 205.23935547 -197.5 204.14453125 C-199.45369767 200.05397675 -200.1436897 195.34266547 -201.1328125 190.9375 C-201.39835938 189.761875 -201.66390625 188.58625 -201.9375 187.375 C-202.18628906 186.25222656 -202.43507812 185.12945312 -202.69140625 183.97265625 C-203.1099754 181.40790299 -203.1099754 181.40790299 -204.375 180.3125 C-207.03698142 163.91313999 -207.80407566 146.80931037 -204.8125 130.41796875 C-203.77125498 123.02698847 -204.65405081 117.50424219 -206.875 110.5 C-210.62130076 97.53619173 -210.08836917 90.01674098 -203.58984375 78.1796875 C-194.53536278 62.22413939 -182.70093525 43.42114508 -164.375 37.3125 C-144.0700109 35.19522763 -120.95966762 44.01813142 -104.375 55.3125 C-101.48562518 57.80980626 -98.85832119 60.41272122 -96.375 63.3125 C-97.365 63.8075 -97.365 63.8075 -98.375 64.3125 C-100.97675934 63.26519434 -103.51147338 62.15955756 -106.0625 61 C-114.16392896 57.45915654 -121.56660937 55.94075494 -130.375 55.3125 C-129.488125 55.88742187 -128.60125 56.46234375 -127.6875 57.0546875 C-119.27752723 62.6761423 -112.76314885 69.15223927 -108.375 78.3125 C-107.9625 79.11171875 -107.55 79.9109375 -107.125 80.734375 C-101.56844562 93.77684292 -103.60503226 110.57006757 -105.375 124.3125 C-106.035 124.3125 -106.695 124.3125 -107.375 124.3125 C-107.54773438 123.73886719 -107.72046875 123.16523438 -107.8984375 122.57421875 C-112.27167781 109.35419415 -119.7447376 90.17937492 -132.6328125 83.06640625 C-133.20773437 82.81761719 -133.78265625 82.56882812 -134.375 82.3125 C-134.01148438 82.95832031 -133.64796875 83.60414063 -133.2734375 84.26953125 C-124.8745726 100.01201905 -120.64417689 117.01045189 -119.62109375 134.7578125 C-119.65486585 137.24464972 -119.65486585 137.24464972 -118.375 138.3125 C-118.28086313 140.36806661 -118.25757002 142.42690181 -118.26147461 144.48461914 C-118.26132858 145.12850082 -118.26118256 145.77238251 -118.2610321 146.43577576 C-118.26173115 148.57310303 -118.26952309 150.71034413 -118.27734375 152.84765625 C-118.27920796 154.32596285 -118.28063185 155.80427007 -118.28163147 157.28257751 C-118.28545641 161.18048802 -118.29528648 165.07836149 -118.30633545 168.97625732 C-118.31655008 172.95096333 -118.3211292 176.92567529 -118.32617188 180.90039062 C-118.33690878 188.704444 -118.35398491 196.50846682 -118.375 204.3125 C-126.96198513 200.16807135 -133.86217267 193.15278792 -140.375 186.3125 C-140.375 201.45185798 -131.06909711 217.04400777 -122.375 228.8125 C-121.88894287 229.4712915 -121.40288574 230.13008301 -120.90209961 230.80883789 C-117.17735158 235.66609808 -112.92840419 240.5357979 -107.375 243.3125 C-107.38547363 242.14493164 -107.39594727 240.97736328 -107.40673828 239.77441406 C-107.44362401 235.33857432 -107.46614303 230.90274729 -107.48486328 226.46679688 C-107.49476793 224.56638288 -107.50829528 222.66598346 -107.52587891 220.765625 C-107.6455159 207.4788811 -107.01486318 194.50010082 -105.375 181.3125 C-105.2394873 180.19762207 -105.10397461 179.08274414 -104.96435547 177.93408203 C-101.41716104 150.97998141 -93.06383833 124.43577015 -80.44580078 100.36425781 C-79.35235952 98.26911866 -78.28248503 96.16307491 -77.21484375 94.0546875 C-70.85382974 81.61621765 -63.66314452 69.78505593 -54.5546875 59.14453125 C-53.01407222 57.11515147 -53.01407222 57.11515147 -53.375 53.3125 C-60.45854754 55.06255292 -66.84150043 57.78619741 -73.37133789 60.97485352 C-78.18745294 63.3125 -78.18745294 63.3125 -80.375 63.3125 C-79.01033819 58.54588292 -76.92527391 54.67722023 -74.19140625 50.5859375 C-73.77640366 49.95700592 -73.36140106 49.32807434 -72.93382263 48.68008423 C-72.05388971 47.35160096 -71.17035625 46.02549632 -70.28344727 44.70166016 C-68.960589 42.72205183 -67.65651991 40.73099496 -66.35351562 38.73828125 C-55.53667763 22.39055002 -42.40124661 6.07983317 -22.5 1.5625 C-15.0398073 0.15711475 -7.57415979 0.02781864 0 0 Z " fill="#C5191D" transform="translate(422.375,204.6875)"/>
<path d="M0 0 C21.51477119 17.12400156 33.37907045 47.76311124 36.6015625 74.46875 C38.65519682 95.57098359 35.11169133 115.55860511 28.96875 135.74609375 C27.64534282 140.19124771 26.52987304 144.6793249 25.43823242 149.1862793 C24.7163547 152.16352936 23.96591908 155.11311965 23.08203125 158.046875 C20.18804861 167.88369861 18.68006345 180.5708453 22.6875 190.3125 C25.665275 195.65991285 29.17010457 199.05670152 35 201 C43.36292879 202.12373159 50.06269339 200.84975013 57 196 C61.57600656 191.9838813 63.57738714 187.18516639 64.37109375 181.203125 C64.52424946 174.39220068 63.50554641 168.74872704 61.5 162.3125 C57.00946126 147.54218797 57.74736062 134.14329414 64 120 C64.96456402 118.3125777 65.95252946 116.63724868 67 115 C69.00505863 117.00505863 69.58550404 118.12342244 70.5859375 120.703125 C70.87726563 121.43660156 71.16859375 122.17007813 71.46875 122.92578125 C72.06659752 124.45905397 72.66298417 125.99289722 73.2578125 127.52734375 C76.10543034 134.683857 79.38701692 140.67612644 86 145 C89.0819788 145.75081605 90.72341235 145.52009328 94 145 C98.23094535 141.87277952 99.66350964 138.99114098 101 134 C101.19101922 131.41000411 101.28415787 128.95971385 101.25 126.375 C101.24613281 125.64643799 101.24226563 124.91787598 101.23828125 124.16723633 C101.14909386 118.3025464 100.628543 112.51610804 100 106.6875 C98.01143296 87.98508 98.96007725 70.50555749 111.2109375 55.24609375 C114.87545742 51.06415823 118.59260925 47.40042977 123 44 C122.85833643 45.91697937 122.71150416 47.83357723 122.5625 49.75 C122.48128906 50.81734375 122.40007812 51.8846875 122.31640625 52.984375 C122 56 122 56 121.48046875 58 C117.36142963 75.14591893 124.57567577 92.44143844 131.52734375 107.65234375 C131.94169678 108.55911865 132.3560498 109.46589355 132.78295898 110.40014648 C133.55692546 112.05350034 134.35598616 113.69550841 135.18774414 115.32055664 C138.06140361 121.13010933 138.66566195 126.1145929 138.5625 132.5625 C138.55371826 133.52486572 138.54493652 134.48723145 138.53588867 135.47875977 C138.28629147 144.33099319 136.19351667 151.81473815 133 160 C129.15210662 170.08974459 125.39252837 180.46380798 128.69921875 191.2890625 C131.30179201 196.45028374 135.65864455 199.21954818 141 201 C148.60920708 201.97732935 154.786252 200.58029382 161 196 C163.17392422 193.52060633 164.68975975 191.0190119 166 188 C166.55107422 186.73349609 166.55107422 186.73349609 167.11328125 185.44140625 C168.3702536 180.56302458 168.24937998 175.89053486 168.1875 170.875 C168.18685547 169.905625 168.18621094 168.93625 168.18554688 167.9375 C168.15598905 162.98492225 167.95805359 158.09656667 167.5078125 153.1640625 C166.88907341 146.27562064 166.74190899 139.41356842 166.6875 132.5 C166.65849609 131.27152344 166.62949219 130.04304687 166.59960938 128.77734375 C166.47986543 111.40526074 173.69390078 99.40416833 185.08203125 86.80078125 C187 85 187 85 189 85 C188.67 86.03125 188.34 87.0625 188 88.125 C182.48464953 110.62286845 194.1354007 129.35856511 204.7578125 148.03515625 C211.48899018 159.89526871 217.16880553 170.99912428 220.3515625 184.36328125 C220.98275618 187.08247304 220.98275618 187.08247304 222 190 C224.19499652 187.80500348 223.8575847 182.99466984 224.25 179.9375 C225.38059698 171.65077895 226.77329218 163.44641525 228.4375 155.25 C228.63053711 154.26378662 228.82357422 153.27757324 229.02246094 152.26147461 C231.14080784 142.1025671 235.35516348 133.65906962 241 125 C241.48984375 124.2471875 241.9796875 123.494375 242.484375 122.71875 C248.08525523 114.84424512 256.75570103 107.14443627 266 104 C264.71814849 106.69366032 263.27670011 109.0648746 261.5625 111.5 C253.45889614 124.44658605 255.33548257 139.69717156 258.48632812 153.87597656 C259.35112193 157.4518825 260.40286587 160.97032713 261.4375 164.5 C269.16697658 191.38908512 272.2757391 219.74960209 261 246 C254.98493468 256.7977758 245.78108923 265.01405625 234 269 C231.01395267 269.25299966 231.01395267 269.25299966 227.62423611 269.25726891 C226.32934149 269.2637178 225.03444688 269.27016669 223.70031303 269.276811 C222.26516903 269.27386877 220.83002541 269.27073334 219.3948822 269.26742554 C217.86881601 269.27116198 216.34275174 269.27576347 214.8166905 269.28115618 C210.62114881 269.29340297 206.42568676 269.29312373 202.23013127 269.29076743 C197.70573579 269.29035967 193.18136598 269.30139466 188.65698242 269.31088257 C179.79092787 269.32750404 170.92489991 269.33299268 162.05883109 269.33410732 C154.85033405 269.3350575 147.64184578 269.33916627 140.43335152 269.34550858 C119.99345272 269.3631261 99.55357494 269.37234695 79.11366849 269.37084763 C78.01147283 269.37076772 76.90927717 269.3706878 75.77368164 269.37060547 C74.67013879 269.37052371 73.56659595 269.37044195 72.42961241 269.37035771 C54.5548219 269.36954523 36.68011575 269.38867185 18.80534964 269.4168822 C0.44920596 269.44562341 -17.90689662 269.45942173 -36.26306337 269.45769465 C-46.56753788 269.45703105 -56.87192402 269.46250978 -67.17637825 269.48405075 C-75.95247205 269.50227907 -84.72843745 269.50659651 -93.504542 269.4930319 C-97.97996715 269.48650987 -102.45514611 269.4863572 -106.93054771 269.5037384 C-111.03351411 269.51950874 -115.13603993 269.51656535 -119.23899584 269.49917014 C-120.71751778 269.49610886 -122.19607292 269.49969955 -123.67455567 269.51089029 C-137.39537297 269.6078045 -149.54617574 267.03775238 -159.74609375 257.33984375 C-170.37103146 245.70805408 -170.80308612 231.71445038 -170.19970703 216.73095703 C-169.72299289 210.21197851 -168.04272889 204.1821201 -166 198 C-165.66097656 196.93136719 -165.32195312 195.86273437 -164.97265625 194.76171875 C-162.05411225 186.42153785 -157.78541601 178.897465 -153.40234375 171.26171875 C-142.38355239 151.87916091 -137.50931998 132.09005009 -143.34375 110.2109375 C-143.66859375 109.11652344 -143.66859375 109.11652344 -144 108 C-132.21706263 113.00563927 -124.69735726 124.77751893 -119.69140625 135.91015625 C-114.45412268 149.95477483 -116.51415879 165.57221557 -118.91870117 180.01489258 C-120.54964574 189.91656031 -121.29600983 198.72061877 -117 208 C-116.67 208.99 -116.34 209.98 -116 211 C-112.82454097 212.05848634 -110.45991204 212.16670878 -107.125 212.1875 C-106.09632813 212.20167969 -105.06765625 212.21585938 -104.0078125 212.23046875 C-100.85332181 211.98876102 -98.76859843 211.52535907 -96 210 C-94.54976226 208.14526806 -94.54976226 208.14526806 -93.6875 205.875 C-93.36136719 205.15054688 -93.03523438 204.42609375 -92.69921875 203.6796875 C-90.88807087 196.7386403 -92.41794669 190.42735979 -94 183.625 C-99.61525527 157.0906477 -91.71911842 134.10806672 -80.44921875 110.1484375 C-73.22762974 94.45948671 -71.67668981 80.02409091 -71 63 C-61.00136785 67.17550101 -53.47696642 80.03217936 -49.4921875 89.6328125 C-46.58158477 97.59954796 -44.83186834 104.32133962 -44.9375 112.8125 C-44.94201172 113.50537109 -44.94652344 114.19824219 -44.95117188 114.91210938 C-44.96286844 116.60811068 -44.98080076 118.30406703 -45 120 C-44.32324219 119.319375 -43.64648438 118.63875 -42.94921875 117.9375 C-40.84684254 115.83290687 -38.71990644 113.75599062 -36.58203125 111.6875 C-28.61228636 103.92415971 -21.41006298 96.11027266 -15 87 C-14.37867188 86.1234375 -13.75734375 85.246875 -13.1171875 84.34375 C-0.34915068 65.33483419 8.26102144 42.0862234 4.3984375 18.97265625 C3.67075413 15.29381253 2.87335985 11.64680991 2 8 C1.78730469 7.1028125 1.57460938 6.205625 1.35546875 5.28125 C0.92344779 3.5158694 0.46606333 1.75670025 0 0 Z " fill="#C51A1D" transform="translate(497,598)"/>
<path d="M0 0 C69.85326274 -1.62072535 140.95320006 13.01116836 204.47851562 42.06640625 C205.64866211 42.60136719 206.81880859 43.13632813 208.02441406 43.6875 C225.07763894 51.53347947 241.46137151 60.25345152 257.47851562 70.06640625 C258.33123047 70.58444824 259.18394531 71.10249023 260.0625 71.63623047 C286.17281891 87.54880345 309.94341628 106.45797189 332.47851562 127.06640625 C332.98237793 127.52515137 333.48624023 127.98389648 334.00537109 128.45654297 C343.28010038 136.90660423 352.48895602 145.40748251 360.65039062 154.9609375 C362.78872433 157.42367653 365.00936162 159.80127968 367.22851562 162.19140625 C372.47743096 167.95492112 377.27926958 174.00116421 382.0234375 180.18310547 C383.47716753 182.06466141 384.95198165 183.9278532 386.43164062 185.7890625 C406.52844079 211.28018278 422.86942836 239.14250832 437.47851562 268.06640625 C437.9208252 268.94022949 438.36313477 269.81405273 438.81884766 270.71435547 C464.83457072 322.53877993 479.57653496 380.40742082 484.47851562 438.06640625 C484.57277832 439.14897705 484.66704102 440.23154785 484.76416016 441.34692383 C485.66583821 453.01470237 485.72189995 464.68161285 485.72851562 476.37890625 C485.72952774 477.99670486 485.72952774 477.99670486 485.7305603 479.64718628 C485.63452296 576.87018422 455.32990562 673.94368824 398.47851562 753.06640625 C397.90359375 753.87045898 397.32867188 754.67451172 396.73632812 755.50292969 C390.1546786 764.67484629 383.40656156 773.61673128 376.00195312 782.140625 C373.53169864 785.00474359 371.15653791 787.92805849 368.79101562 790.87890625 C365.52101878 794.9008275 362.0783874 798.57976599 358.36132812 802.1875 C356.54884683 803.99622096 354.88642426 805.86616106 353.22851562 807.81640625 C346.59298809 815.51483293 339.26241048 822.71472303 331.52539062 829.30078125 C329.02136713 831.46074045 326.59853865 833.70128618 324.16601562 835.94140625 C253.90619658 899.8576575 161.29606437 939.82738677 19.47851562 955.06640625 C18.64642578 955.08832031 17.81433594 955.11023438 16.95703125 955.1328125 C-52.89623149 956.75353785 -123.99616881 942.12164414 -187.52148438 913.06640625 C-188.69163086 912.53144531 -189.86177734 911.99648438 -191.06738281 911.4453125 C-208.12060769 903.59933303 -224.50434026 894.87936098 -240.52148438 885.06640625 C-241.37419922 884.54836426 -242.22691406 884.03032227 -243.10546875 883.49658203 C-269.21578766 867.58400905 -292.98638503 848.67484061 -315.52148438 828.06640625 C-316.02534668 827.60766113 -316.52920898 827.14891602 -317.04833984 826.67626953 C-326.32306913 818.22620827 -335.53192477 809.72532999 -343.69335938 800.171875 C-345.83169308 797.70913597 -348.05233037 795.33153282 -350.27148438 792.94140625 C-355.52039971 787.17789138 -360.32223833 781.13164829 -365.06640625 774.94970703 C-366.52013628 773.06815109 -367.9949504 771.2049593 -369.47460938 769.34375 C-389.57140954 743.85262972 -405.91239711 715.99030418 -420.52148438 687.06640625 C-420.96379395 686.19258301 -421.40610352 685.31875977 -421.86181641 684.41845703 C-447.87753947 632.59403257 -462.61950371 574.72539168 -467.52148438 517.06640625 C-467.61574707 515.98383545 -467.71000977 514.90126465 -467.80712891 513.78588867 C-468.70880696 502.11811013 -468.7648687 490.45119965 -468.77148438 478.75390625 C-468.77215912 477.67537384 -468.77283386 476.59684143 -468.77352905 475.48562622 C-468.67749171 378.26262828 -438.37287437 281.18912426 -381.52148438 202.06640625 C-380.9465625 201.26235352 -380.37164062 200.45830078 -379.77929688 199.62988281 C-373.19764735 190.45796621 -366.44953031 181.51608122 -359.04492188 172.9921875 C-356.57466739 170.12806891 -354.19950666 167.20475401 -351.83398438 164.25390625 C-348.56398753 160.231985 -345.12135615 156.55304651 -341.40429688 152.9453125 C-339.59181558 151.13659154 -337.92939301 149.26665144 -336.27148438 147.31640625 C-329.63595684 139.61797957 -322.30537923 132.41808947 -314.56835938 125.83203125 C-312.06433588 123.67207205 -309.6415074 121.43152632 -307.20898438 119.19140625 C-236.94916533 55.275155 -144.33903312 15.30542573 0 0 Z M-191.52148438 61.06640625 C-192.45299316 61.51097168 -193.38450195 61.95553711 -194.34423828 62.41357422 C-226.94232056 78.02528921 -258.26761204 97.80365994 -285.59179688 121.5390625 C-288.47893825 124.02970313 -291.42435104 126.42822866 -294.39648438 128.81640625 C-298.11479519 131.84056063 -301.54936557 134.97348702 -304.87695312 138.41796875 C-306.5241294 140.06905756 -308.23932379 141.56282752 -310.02148438 143.06640625 C-319.53830843 151.27955577 -328.42002095 160.46404013 -336.52148438 170.06640625 C-337.50273408 171.18649568 -338.48602259 172.30480045 -339.47070312 173.421875 C-346.49075433 181.4037334 -353.2002566 189.51442803 -359.52148438 198.06640625 C-360.02147949 198.7404248 -360.52147461 199.41444336 -361.03662109 200.10888672 C-368.96126557 210.8284803 -376.45778383 221.76114557 -383.52148438 233.06640625 C-384.08464355 233.96311035 -384.08464355 233.96311035 -384.65917969 234.87792969 C-409.22104489 274.19894259 -427.73789917 317.09610979 -438.79492188 362.12158203 C-439.54158989 365.14789574 -440.31192294 368.16757405 -441.08398438 371.1875 C-448.63393938 401.12681487 -452.8519403 432.17914432 -453.52148438 463.06640625 C-453.56233154 464.87794189 -453.56233154 464.87794189 -453.60400391 466.72607422 C-454.18180096 495.33095287 -452.64807732 523.8726074 -447.52148438 552.06640625 C-447.31120605 553.22736816 -447.10092773 554.38833008 -446.88427734 555.58447266 C-446.15180464 559.58110548 -445.40344731 563.57435895 -444.64648438 567.56640625 C-444.41405029 568.80028076 -444.18161621 570.03415527 -443.94213867 571.30541992 C-440.4983089 589.01372939 -435.8014713 606.15074803 -429.89648438 623.19140625 C-429.59190308 624.07727417 -429.28732178 624.96314209 -428.97351074 625.87585449 C-423.79592618 640.90426734 -418.12284231 655.59771129 -411.52148438 670.06640625 C-410.91191895 671.42354736 -410.91191895 671.42354736 -410.29003906 672.80810547 C-390.81206789 716.00281789 -363.3961079 755.16125825 -331.52148438 790.06640625 C-330.66941406 791.01128906 -329.81734375 791.95617187 -328.93945312 792.9296875 C-320.57514566 802.17738905 -311.99963964 811.28810822 -302.49023438 819.375 C-300.24366931 821.30508467 -298.07564533 823.31058764 -295.89648438 825.31640625 C-290.29811964 830.36089928 -284.41478793 834.98307697 -278.44726562 839.57763672 C-276.4839641 841.09541216 -274.53352074 842.62865898 -272.58398438 844.1640625 C-257.05170991 856.31765353 -240.62925676 867.25564062 -223.52148438 877.06640625 C-222.86212891 877.44684082 -222.20277344 877.82727539 -221.5234375 878.21923828 C-183.23311749 900.21370144 -142.42361185 916.55905601 -99.52148438 927.06640625 C-98.59303711 927.29666504 -97.66458984 927.52692383 -96.70800781 927.76416016 C-84.44358621 930.75885859 -72.06127164 932.8795077 -59.58398438 934.75390625 C-58.57549438 934.90814056 -58.57549438 934.90814056 -57.54663086 935.06549072 C-35.96226814 938.33350845 -14.39842711 939.45118475 7.41601562 939.37890625 C8.56772247 939.37708344 9.71942932 939.37526062 10.90603638 939.37338257 C55.94386406 939.25397248 102.11202956 933.75591102 144.87158203 918.95898438 C147.91207308 917.91796215 150.96636798 916.92304949 154.02148438 915.92578125 C207.86278414 898.12575857 259.60449376 870.89773803 302.54882812 833.59375 C305.4359695 831.10310937 308.38138229 828.70458384 311.35351562 826.31640625 C315.07035736 823.29344669 318.50393226 820.16201368 321.83007812 816.71875 C323.4985982 815.04627609 325.23776469 813.52944132 327.04101562 812.00390625 C335.53613198 804.67023159 343.60949208 796.53222211 350.85742188 787.96484375 C352.75945212 785.73740592 354.74459282 783.59617654 356.72851562 781.44140625 C361.83527728 775.77975029 366.49839712 769.8119636 371.14941406 763.77636719 C372.33793226 762.24727434 373.55117815 760.73747622 374.76757812 759.23046875 C387.66567613 743.05244204 399.37860945 725.10692832 409.47851562 707.06640625 C409.9827002 706.17260254 410.48688477 705.27879883 411.00634766 704.35791016 C424.93312943 679.5256277 436.0221983 653.89926544 445.47851562 627.06640625 C445.83929199 626.0604541 446.20006836 625.05450195 446.57177734 624.01806641 C458.18995411 591.50966862 465.02452255 557.37133428 468.47851562 523.06640625 C468.58292969 522.08978027 468.68734375 521.1131543 468.79492188 520.10693359 C471.76893005 491.82091594 471.1171048 463.34980189 468.47851562 435.06640625 C468.32576172 433.34115723 468.32576172 433.34115723 468.16992188 431.58105469 C463.68666943 381.67027825 450.32535036 332.63516869 429.47851562 287.06640625 C429.00446289 286.02484375 428.53041016 284.98328125 428.04199219 283.91015625 C418.32929724 262.73297769 407.13783914 242.7557697 394.22851562 223.37890625 C393.81053711 222.7511026 393.39255859 222.12329895 392.96191406 221.47647095 C387.3894428 213.13461629 381.58237169 205.03066366 375.47851562 197.06640625 C374.97481445 196.40471436 374.47111328 195.74302246 373.95214844 195.0612793 C357.80941659 173.95644364 339.73670716 153.06025843 319.48242188 135.79296875 C317.22618177 133.84899579 315.0448767 131.83317107 312.85351562 129.81640625 C307.25515089 124.77191322 301.37181918 120.14973553 295.40429688 115.55517578 C293.44099535 114.03740034 291.49055199 112.50415352 289.54101562 110.96875 C274.00358345 98.8111232 257.57496219 87.90573234 240.47851562 78.06640625 C239.84574707 77.69660645 239.21297852 77.32680664 238.56103516 76.94580078 C215.2532422 63.36248922 190.75962243 52.4008521 165.47851562 43.06640625 C164.47626953 42.69290039 163.47402344 42.31939453 162.44140625 41.93457031 C139.99301865 33.62731368 117.10925613 27.79807574 93.55566406 23.62060547 C90.66201443 23.09945467 87.77745565 22.54398679 84.89257812 21.9765625 C-7.54954807 4.1664598 -107.25563064 20.41951037 -191.52148438 61.06640625 Z " fill="#010101" transform="translate(503.521484375,39.93359375)"/>
<path d="M0 0 C-2 10 -2 10 -2.5546875 12.19921875 C-6.12623473 34.66237108 -0.37015195 59.54706806 13 78 C21.73748155 88.96946764 31.21182592 97.77253552 45.7421875 99.42578125 C61.32295287 100.23075544 76.59221618 94.59262429 88.24609375 84.1875 C98.5912769 74.46708119 107.0271089 63.01250875 113.9765625 50.66015625 C114.31429687 50.11230469 114.65203125 49.56445312 115 49 C115.33 49 115.66 49 116 49 C116.00257813 50.30710937 116.00515625 51.61421875 116.0078125 52.9609375 C116.25294831 68.01340953 118.00519018 84.16995784 128.640625 95.79296875 C134.79440654 101.12525033 140.86863826 103.69301226 149.09765625 103.4140625 C164.81985904 101.17105645 178.49153712 93.05944597 188.11376953 80.55957031 C193.06617076 73.88674558 196.56921184 66.53702562 200 59 C200.45632813 58.00484375 200.91265625 57.0096875 201.3828125 55.984375 C202.27574562 53.99869156 203.14235271 52.00117701 204 50 C207.30386613 51.05752889 208.06443501 52.1076585 209.88671875 55.15234375 C210.49937484 56.40809025 211.09929965 57.67011406 211.6875 58.9375 C211.99494141 59.57107422 212.30238281 60.20464844 212.61914062 60.85742188 C215.35689027 66.55457703 216.18214626 70.98612156 216.1875 77.25 C216.19974609 77.98863281 216.21199219 78.72726562 216.22460938 79.48828125 C216.23743838 84.33764337 215.53437584 88.35255837 214 93 C213.7421875 93.90105469 213.484375 94.80210937 213.21875 95.73046875 C212.86296875 96.94669922 212.86296875 96.94669922 212.5 98.1875 C212.14421875 99.41533203 212.14421875 99.41533203 211.78125 100.66796875 C211.0302565 102.90968436 210.11106111 104.91676041 209 107 C218.38702452 105.17307589 227.23586845 102.78745229 236.0625 99.0625 C236.83440674 98.73894531 237.60631348 98.41539062 238.40161133 98.08203125 C243.00812847 96.07430483 247.19195727 93.74626803 251.36889648 90.95092773 C253 90 253 90 255 90 C255.73599342 101.16256691 253.1670567 110.70883093 249 121 C201.8219839 121.18300451 154.64400528 121.32402311 107.46570437 121.40852264 C101.89925481 121.41852861 96.33280594 121.42888316 90.76635742 121.43945312 C89.10404763 121.44260085 89.10404763 121.44260085 87.40815582 121.44581217 C69.45064787 121.48064802 51.49334424 121.54373847 33.53595761 121.61722237 C15.1178741 121.6919644 -3.30010221 121.73645536 -21.71833116 121.75270796 C-33.08874791 121.76369962 -44.45858719 121.79844775 -55.82882623 121.86333174 C-63.61977724 121.90553305 -71.41042857 121.91842053 -79.20148566 121.90801102 C-83.70061849 121.90287319 -88.19874049 121.91089379 -92.69769478 121.9536438 C-96.81445271 121.9924775 -100.92951703 121.99460944 -105.04635171 121.96719116 C-106.53771648 121.96380105 -108.02918544 121.97403767 -109.52034404 121.99906546 C-120.67451496 122.17543493 -120.67451496 122.17543493 -123.95501196 119.26630306 C-125.27593736 117.20552518 -126.17040658 115.29664207 -127 113 C-127.78310547 111.42798828 -127.78310547 111.42798828 -128.58203125 109.82421875 C-133.97305482 96.08138724 -134.06927374 80.64562885 -128.1328125 67.0078125 C-127.47366602 65.64557645 -126.74698697 64.3161199 -126 63 C-124 64 -124 64 -123.17578125 66.1171875 C-122.74845703 67.48230469 -122.74845703 67.48230469 -122.3125 68.875 C-117.29045088 83.26654374 -107.63638532 93.14665901 -94.3125 100.125 C-78.06133095 107.94357251 -61.7146324 109.34068949 -44 110 C-44.68835938 108.54207031 -44.68835938 108.54207031 -45.390625 107.0546875 C-52.82488076 90.64910159 -55.31026959 74.39029293 -55.5 56.4375 C-55.51861084 55.29692139 -55.53722168 54.15634277 -55.55639648 52.98120117 C-55.49480048 44.75065928 -53.79293096 37.72429908 -51 30 C-50.01 30 -49.02 30 -48 30 C-47.85304688 30.88300781 -47.70609375 31.76601563 -47.5546875 32.67578125 C-45.11861054 45.71019301 -39.99737905 57.47753801 -28.78125 65.22265625 C-27.8634375 65.80917969 -26.945625 66.39570312 -26 67 C-26.01047363 66.33581055 -26.02094727 65.67162109 -26.03173828 64.98730469 C-26.34201825 42.34079488 -25.42217306 24.48542157 -9.328125 7.01171875 C-2.46516973 0 -2.46516973 0 0 0 Z " fill="#FAF8F8" transform="translate(482,746)"/>
<path d="M0 0 C1.6394458 -0.00821777 1.6394458 -0.00821777 3.31201172 -0.01660156 C10.00001709 0.04237735 16.11673369 0.83532825 22.625 2.3125 C24.78889091 2.66340123 26.95532417 2.99935091 29.125 3.3125 C31.29181312 3.64488 33.45848817 3.97816176 35.625 4.3125 C36.50414062 4.44269531 37.38328125 4.57289063 38.2890625 4.70703125 C48.32950068 6.41231202 57.03296673 11.44737496 65.99609375 16.078125 C68.23907735 17.13129412 70.20669216 17.83226866 72.625 18.3125 C72.625 18.9725 72.625 19.6325 72.625 20.3125 C73.91277344 20.64894531 73.91277344 20.64894531 75.2265625 20.9921875 C79.13838266 22.51195211 81.90251263 24.69370656 85 27.4375 C85.85198975 28.17891235 85.85198975 28.17891235 86.72119141 28.93530273 C94.84776484 36.06657322 103.01949703 43.52129818 107.64453125 53.515625 C110.5184597 59.51538001 115.12639035 61.22646955 121.10546875 63.41113281 C122.94193561 64.05464123 124.78336283 64.68394123 126.625 65.3125 C128.29617734 65.96777743 129.96501982 66.62935431 131.625 67.3125 C131.625 67.9725 131.625 68.6325 131.625 69.3125 C132.47707031 69.54839844 133.32914063 69.78429687 134.20703125 70.02734375 C138.02900316 71.46440519 141.06043308 73.46786858 144.3125 75.875 C145.22660645 76.5410022 145.22660645 76.5410022 146.15917969 77.22045898 C170.05560837 94.78676993 200.43552677 120.69063549 210.53515625 149.94921875 C211.96520461 153.05021966 213.7371746 154.18724731 216.5625 156.0625 C217.43777344 156.65546875 218.31304688 157.2484375 219.21484375 157.859375 C221.63137263 159.4363027 221.63137263 159.4363027 224.625 160.3125 C225.81022816 161.44922238 226.98901972 162.59380534 228.12597656 163.77880859 C229.82149609 165.51354046 231.58408161 167.15624256 233.3671875 168.80078125 C234.04136719 169.42533203 234.71554687 170.04988281 235.41015625 170.69335938 C236.79333316 171.9718285 238.1787214 173.24790971 239.56640625 174.52148438 C257.78481425 191.43857752 269.68551872 211.91948613 277.625 235.3125 C277.99625 236.36308594 278.3675 237.41367187 278.75 238.49609375 C282.54197765 250.70152181 281.85987583 263.69063441 281.625 276.3125 C279.37298951 273.5480607 278.04300462 271.14583144 276.9765625 267.75 C276.69627197 266.87682129 276.41598145 266.00364258 276.12719727 265.10400391 C275.69298462 263.72220947 275.69298462 263.72220947 275.25 262.3125 C271.3088746 250.18516771 266.64897322 238.93897921 260.515625 227.765625 C259.45714566 225.83236935 258.4127019 223.89066091 257.421875 221.921875 C248.43982227 204.35995101 233.67970105 188.78932953 218.02148438 177.1171875 C208.85924853 170.2697351 203.80502491 163.34537607 198.625 153.20361328 C196.03859157 148.31242195 192.81733536 143.82032702 189.625 139.3125 C189.20943848 138.72033691 188.79387695 138.12817383 188.36572266 137.51806641 C177.88655188 122.6906289 165.64957206 108.89221798 151.625 97.3125 C150.65691406 96.50683594 149.68882812 95.70117188 148.69140625 94.87109375 C135.64909072 84.28928654 121.04699496 76.73354132 105.10864258 71.48364258 C102.24904249 70.13522013 101.35260109 69.02833629 99.6796875 66.3828125 C99.16599609 65.59318115 98.65230469 64.8035498 98.12304688 63.98999023 C97.58744141 63.14766846 97.05183594 62.30534668 96.5 61.4375 C79.67468889 36.02089541 58.08011666 21.70105222 28.34765625 15.37890625 C21.16622092 13.92991755 13.94818733 12.69674131 6.625 12.3125 C5.5834375 12.24804688 4.541875 12.18359375 3.46875 12.1171875 C-13.41081256 11.54693201 -28.74671253 16.33996063 -41.17431641 27.94702148 C-45.59604577 32.28976552 -51.05598219 37.87804824 -51.52441406 44.3894043 C-51.77612747 47.06823322 -52.14904902 48.90249299 -53.375 51.3125 C-57.22932743 54.20038515 -61.46004914 55.99437729 -65.875 57.875 C-67.62490234 58.67260742 -67.62490234 58.67260742 -69.41015625 59.48632812 C-77.90947756 63.3125 -77.90947756 63.3125 -80.375 63.3125 C-79.01033819 58.54588292 -76.92527391 54.67722023 -74.19140625 50.5859375 C-73.77640366 49.95700592 -73.36140106 49.32807434 -72.93382263 48.68008423 C-72.05388971 47.35160096 -71.17035625 46.02549632 -70.28344727 44.70166016 C-68.960589 42.72205183 -67.65651991 40.73099496 -66.35351562 38.73828125 C-55.53667763 22.39055002 -42.40124661 6.07983317 -22.5 1.5625 C-15.0398073 0.15711475 -7.57415979 0.02781864 0 0 Z " fill="#F7F5F5" transform="translate(422.375,204.6875)"/>
<path d="M0 0 C7.77815813 3.92098945 14.37574196 8.4207458 20.07617188 15.07714844 C19.41617188 15.40714844 18.75617188 15.73714844 18.07617188 16.07714844 C15.47441253 15.02984277 12.9396985 13.92420599 10.38867188 12.76464844 C2.28724291 9.22380498 -5.11543749 7.70540337 -13.92382812 7.07714844 C-12.93382812 8.06714844 -11.94382812 9.05714844 -10.92382812 10.07714844 C-11.97957031 9.86058594 -13.0353125 9.64402344 -14.12304688 9.42089844 C-22.74364622 7.75611542 -31.26450799 6.70256508 -40.04882812 6.51464844 C-40.91209717 6.47597656 -41.77536621 6.43730469 -42.66479492 6.39746094 C-51.21281276 6.35766029 -55.67912172 10.80996406 -61.54882812 16.51464844 C-69.03079449 25.3522922 -72.35216033 38.0142597 -72.27539062 49.35058594 C-71.54895596 57.05079344 -69.11266128 64.86082346 -64.75195312 71.26855469 C-62.92382812 74.07714844 -62.92382812 74.07714844 -62.92382812 78.07714844 C-64.03757813 79.06714844 -64.03757813 79.06714844 -65.17382812 80.07714844 C-70.1074434 84.68747838 -71.6074656 91.82759761 -72.24023438 98.32714844 C-72.6772764 122.56841258 -62.23889914 145.37568777 -48.32617188 164.77246094 C-41.83555251 173.86806873 -39.78611764 182.49656809 -37.54052734 193.31640625 C-36.50215973 197.96480726 -35.16726406 202.5168178 -33.79882812 207.07714844 C-33.55688721 207.90746582 -33.31494629 208.7377832 -33.06567383 209.59326172 C-31.78668224 213.82967471 -30.32678247 217.32342094 -27.92382812 221.07714844 C-27.92382812 221.73714844 -27.92382812 222.39714844 -27.92382812 223.07714844 C-31.5929381 222.50892344 -33.16861047 221.13335245 -35.67382812 218.45214844 C-38.24698527 215.71681752 -40.9046975 213.22059072 -43.76367188 210.79199219 C-47.83738587 207.25431807 -51.32605892 203.43768266 -54.73632812 199.26464844 C-55.63363647 198.16866333 -55.63363647 198.16866333 -56.54907227 197.05053711 C-66.1015677 185.11468199 -73.3824435 171.84647701 -79.92382812 158.07714844 C-80.48070312 157.00400391 -80.48070312 157.00400391 -81.04882812 155.90917969 C-83.0025258 151.81862519 -83.69251782 147.10731391 -84.68164062 142.70214844 C-84.9471875 141.52652344 -85.21273437 140.35089844 -85.48632812 139.13964844 C-85.73511719 138.016875 -85.98390625 136.89410156 -86.24023438 135.73730469 C-86.65880352 133.17255143 -86.65880352 133.17255143 -87.92382812 132.07714844 C-90.58580955 115.67778842 -91.35290378 98.57395881 -88.36132812 82.18261719 C-87.32008311 74.79163691 -88.20287894 69.26889063 -90.42382812 62.26464844 C-94.17012889 49.30084017 -93.6371973 41.78138941 -87.13867188 29.94433594 C-65.42516909 -8.31857936 -40.07290395 -19.22278895 0 0 Z " fill="#F9F7F7" transform="translate(305.923828125,252.9228515625)"/>
<path d="M0 0 C2.93471199 1.64069449 5.32238613 3.75523875 7.8125 6 C9.20648336 7.19616971 10.60232419 8.39017812 12 9.58203125 C13.01513672 10.45915771 13.01513672 10.45915771 14.05078125 11.35400391 C19.08279735 15.60323394 24.52409484 19.34939656 30 23 C30 23.66 30 24.32 30 25 C30.67933594 25.21527344 31.35867188 25.43054688 32.05859375 25.65234375 C35.90552345 27.41488126 38.8222713 29.87188603 42.0625 32.5625 C43.40377061 33.65639306 44.74623221 34.7488273 46.08984375 35.83984375 C46.75226074 36.37851074 47.41467773 36.91717773 48.09716797 37.47216797 C51.67969956 40.34867332 55.37545902 43.06782791 59.0625 45.80859375 C65.83384379 50.86008825 72.50693654 56.04314618 79.15625 61.25390625 C87.78942115 68.01179634 96.50739961 74.61935507 105.36328125 81.08300781 C110.6065527 84.92588885 115.65139144 88.91349763 120.62109375 93.10546875 C123.71577003 95.57003032 127.00335714 97.62192282 130.41796875 99.61328125 C130.94003906 100.07089844 131.46210937 100.52851562 132 101 C132 102.32 132 103.64 132 105 C130.41925436 105.81752303 128.83528777 106.62881997 127.25 107.4375 C126.36828125 107.88996094 125.4865625 108.34242188 124.578125 108.80859375 C123.72734375 109.20175781 122.8765625 109.59492187 122 110 C121.33484375 110.32097656 120.6696875 110.64195312 119.984375 110.97265625 C118 111 118 111 115.7265625 108.95703125 C115.30407227 108.48990723 114.88158203 108.0227832 114.44628906 107.54150391 C111.70183401 104.61637069 108.49251942 102.20082891 105.375 99.6875 C104.66134277 99.10991943 103.94768555 98.53233887 103.21240234 97.93725586 C98.58434913 94.21446447 93.8692872 90.66121663 89.03125 87.21484375 C84.99727925 84.26734192 81.06295291 81.19909126 77.125 78.125 C76.34777588 77.51841553 75.57055176 76.91183105 74.76977539 76.28686523 C73.23190792 75.08601601 71.69422529 73.88493004 70.15673828 72.68359375 C63.33999484 67.36230523 56.51119612 62.06420209 49.5 57 C41.73967619 51.39470136 34.19563287 45.50861177 26.6640625 39.6015625 C18.55850443 33.25265643 10.40229081 27.03856972 1.984375 21.109375 C-1.11512414 18.91862954 -4.1639692 16.67531141 -7.1796875 14.37109375 C-8.52152292 13.36039797 -9.88427822 12.3773335 -11.2578125 11.41015625 C-11.99773438 10.88292969 -12.73765625 10.35570312 -13.5 9.8125 C-14.1703125 9.34457031 -14.840625 8.87664063 -15.53125 8.39453125 C-16.0159375 7.93433594 -16.500625 7.47414063 -17 7 C-17 6.01 -17 5.02 -17 4 C-15.67661368 3.31379969 -14.34050052 2.65213539 -13 2 C-12.2575 1.62875 -11.515 1.2575 -10.75 0.875 C-7.05713762 -0.30000167 -3.78981364 -0.79953128 0 0 Z " fill="#F7F7F7" transform="translate(738,598)"/>
<path d="M0 0 C3.72385576 3.66939352 7.2875712 7.45264895 10.8125 11.3125 C24.37895964 26.04759048 39.31634967 37.97011317 56 49 C55.65066406 48.16855469 55.30132812 47.33710937 54.94140625 46.48046875 C54.48636719 45.39378906 54.03132813 44.30710937 53.5625 43.1875 C53.11003906 42.10855469 52.65757812 41.02960937 52.19140625 39.91796875 C50.65206527 36.1478451 49.87884766 33.35951149 49.9375 29.3125 C49.94652344 28.50425781 49.95554687 27.69601562 49.96484375 26.86328125 C49.97644531 26.24839844 49.98804688 25.63351562 50 25 C52.6918987 27.60392815 55.059588 30.26045568 57.3125 33.25 C58.53988012 34.83471864 59.7690279 36.4180699 61 38 C61.78503906 39.01320313 61.78503906 39.01320313 62.5859375 40.046875 C69.47356288 48.44641814 78.34188955 54.32487962 87.8125 59.4375 C88.42222656 59.7675 89.03195312 60.0975 89.66015625 60.4375 C96.19768063 63.83417028 102.71211624 65.25993933 109.9375 66.125 C110.62134766 66.21136719 111.30519531 66.29773438 112.00976562 66.38671875 C113.67257046 66.59602285 115.33620513 66.79871722 117 67 C116.45415221 70.96738151 116.17280217 71.83471097 113.125 74.75 C106.26103042 79.6920581 96.10585254 78.94025486 87.9453125 77.68359375 C78.99956039 75.83336791 70.42435241 72.46634399 62 69 C62 68.34 62 67.68 62 67 C61.22398437 66.96390625 60.44796875 66.9278125 59.6484375 66.890625 C54.29830264 65.58459636 50.21126593 62.73158604 45.625 59.75 C44.6541748 59.12536865 43.68334961 58.5007373 42.68310547 57.85717773 C34.51840067 52.51602717 26.93671668 46.675989 19.55957031 40.30273438 C17.890678 38.87123002 17.890678 38.87123002 15.5234375 37.265625 C6.31871467 30.65528351 2.28293554 16.67272365 0 6 C-0.125 2.5 -0.125 2.5 0 0 Z " fill="#F9F7F7" transform="translate(242,600)"/>
<path d="M0 0 C3.44179751 1.29381162 6.51397925 2.79242726 9.6484375 4.7109375 C10.95312988 5.50709473 10.95312988 5.50709473 12.28417969 6.31933594 C17.64116603 9.63446485 22.98766747 12.96615606 28.3203125 16.3203125 C33.43475736 19.50931929 38.56976711 22.39170094 44 25 C45.28809605 25.65172109 46.57455245 26.30669267 47.859375 26.96484375 C71.42391307 38.94757292 93.72204096 45.70373538 120 38 C124.09603438 36.5196788 128.05353416 34.83930308 132 33 C139.60955375 29.45448048 139.60955375 29.45448048 144 30 C146.45703125 31.75 146.45703125 31.75 148.8125 34 C149.60269531 34.7425 150.39289063 35.485 151.20703125 36.25 C151.79871094 36.8275 152.39039063 37.405 153 38 C152.9375 39.8125 152.9375 39.8125 152 42 C149.65549661 43.16341563 147.43796162 44.09331507 145 45 C143.83984375 45.53238281 142.6796875 46.06476562 141.484375 46.61328125 C134.14292468 49.97594261 126.75519757 52.90929439 119.0625 55.375 C118.29454102 55.62548096 117.52658203 55.87596191 116.73535156 56.1340332 C96.61053008 62.37689701 76.3509038 58.49277805 58 49 C39.42277975 38.96948811 23.60634729 25.75235905 8.6875 10.9375 C7.83220703 10.09147217 6.97691406 9.24544434 6.09570312 8.3737793 C5.30486328 7.57883057 4.51402344 6.78388184 3.69921875 5.96484375 C2.98596436 5.2493335 2.27270996 4.53382324 1.5378418 3.79663086 C0 2 0 2 0 0 Z " fill="#F6F6F6" transform="translate(526,555)"/>
<path d="M0 0 C4.84114935 0.43605941 7.52979308 2.79771321 11 5.9375 C12.14235275 6.93868905 13.28695018 7.93732178 14.43359375 8.93359375 C15.01866699 9.4426123 15.60374023 9.95163086 16.20654297 10.47607422 C21.68872547 15.13436216 27.47662506 19.53886166 33.37109375 23.65625 C33.90863281 24.0996875 34.44617188 24.543125 35 25 C35 25.66 35 26.32 35 27 C35.70253906 27.22816406 36.40507813 27.45632813 37.12890625 27.69140625 C40.5748445 29.26200395 43.13569974 31.44969089 45.9375 33.9375 C50.51885488 37.9088393 55.15597558 41.77163336 59.9375 45.5 C60.51814209 45.9530249 61.09878418 46.4060498 61.69702148 46.87280273 C62.87546798 47.79085503 64.05442333 48.70825451 65.23388672 49.625 C68.16407776 51.9062878 71.08151864 54.20376396 74 56.5 C77.45970183 59.22149745 80.92112092 61.94054092 84.39453125 64.64453125 C89.40093471 68.54908119 94.38292985 72.47393072 99.2734375 76.5234375 C100.00151611 77.12615479 100.72959473 77.72887207 101.47973633 78.34985352 C102.94319598 79.5679737 104.40145522 80.7923709 105.85424805 82.02319336 C108.97707634 84.64360511 111.99569714 87.10899189 115.55859375 89.10546875 C120.83804025 92.15207928 120.83804025 92.15207928 123 95 C123.9855109 100.34359766 122.9922248 105.72520495 122 111 C117.71046135 110.52338459 115.88137963 108.02608703 113 105 C110.93809896 103.13717906 108.81540628 101.34927719 106.6875 99.5625 C106.10991943 99.07587891 105.53233887 98.58925781 104.93725586 98.08789062 C101.44137833 95.15987883 97.89601136 92.3412155 94.21484375 89.6484375 C84.49272632 82.41257585 75.10266057 74.70580399 65.65625 67.1171875 C60.32786386 62.84409862 54.96454025 58.61876999 49.58374023 54.41210938 C45.77459689 51.42374875 42.01598762 48.38103796 38.27807617 45.30419922 C31.68532644 39.88161957 24.961694 34.71501813 18.0625 29.6875 C16.46290933 28.50345795 14.86392584 27.31859508 13.265625 26.1328125 C10.80652934 24.30946729 8.34695002 22.56516428 5.796875 20.8671875 C3.23773532 19.00818981 1.59753773 17.73263033 0 15 C-0.70290035 9.87512208 -0.54095602 5.12906446 0 0 Z " fill="#F7F7F7" transform="translate(717,620)"/>
<path d="M0 0 C3.61195241 0.59843299 5.5014085 2.03306508 8.25 4.40234375 C15.11317942 10.0466044 22.54640147 14.74800334 30 19.5625 C32.79327913 21.37382716 35.5847047 23.1879863 38.375 25.00390625 C39.04441116 25.43941803 39.71382233 25.87492981 40.40351868 26.32363892 C45.68398666 29.76975619 50.87450829 33.32675002 56 37 C56.72010254 37.51119385 57.44020508 38.0223877 58.18212891 38.54907227 C60.23738549 40.01721418 62.27642311 41.50541166 64.3125 43 C65.32666992 43.72316406 65.32666992 43.72316406 66.36132812 44.4609375 C71.66670784 48.37397854 76.17201952 52.41516832 77.69921875 59.02734375 C77.67441825 65.18613411 77.17969741 69.57127791 73 74.2734375 C69.0716691 77.66469191 64.670499 79.79693444 60 82 C58.66640306 82.64528884 57.3330856 83.29115547 56 83.9375 C51.69000716 86.01008643 47.3494691 88.01189939 43 90 C42.3287207 90.31066406 41.65744141 90.62132812 40.96582031 90.94140625 C39.08694514 91.80728189 37.20149344 92.65646628 35.3125 93.5 C34.23613281 93.9846875 33.15976562 94.469375 32.05078125 94.96875 C28.74984679 96.08455883 26.45646007 96.41724072 23 96 C20.8828125 94.6875 20.8828125 94.6875 19.125 93 C18.52945313 92.443125 17.93390625 91.88625 17.3203125 91.3125 C16.88460937 90.879375 16.44890625 90.44625 16 90 C16.24609375 88.125 16.24609375 88.125 17 86 C18.78515625 84.875 18.78515625 84.875 21.0625 84 C24.09906294 82.77387995 27.03459531 81.51661959 29.9375 80 C33.64954122 78.11463519 37.45423442 76.59106537 41.33203125 75.08203125 C45.20326096 73.51200105 48.97231101 71.73464879 52.75 69.953125 C55 69 55 69 57 69 C58.26888632 65.19334104 58.80836063 61.92834902 58 58 C51.72031511 46.76990659 36.19451235 38.27180579 26 31 C24.85270901 30.17730024 23.7055821 29.35437164 22.55859375 28.53125 C21.35172152 27.6664447 20.14468908 26.80186295 18.9375 25.9375 C18.05143066 25.30303955 18.05143066 25.30303955 17.14746094 24.65576172 C12.77148072 21.53092837 8.35002813 18.47758518 3.890625 15.47265625 C2 14 2 14 0 11 C-0.1953125 8.30078125 -0.1953125 8.30078125 -0.125 5.3125 C-0.10695313 4.31863281 -0.08890625 3.32476562 -0.0703125 2.30078125 C-0.04710937 1.54152344 -0.02390625 0.78226562 0 0 Z " fill="#F6F6F6" transform="translate(720,469)"/>
<path d="M0 0 C19.94204269 6.97530136 37.87999575 17.86114736 53.77734375 31.65234375 C56.15214972 33.6776382 58.53078875 35.55672597 61.0625 37.375 C64.65073184 39.99282952 67.66625704 43.00745609 70.75390625 46.19140625 C72.65791805 48.09541805 74.62824562 49.82946414 76.6875 51.5625 C81.49298452 55.71354111 85.5950147 60.39744378 89.75 65.1875 C90.59433594 66.13238281 91.43867187 67.07726562 92.30859375 68.05078125 C105.72245771 83.24659704 116.00646304 100.48864543 125.75 118.1875 C124.76 118.6825 124.76 118.6825 123.75 119.1875 C123.08355469 118.18332031 122.41710937 117.17914063 121.73046875 116.14453125 C116.32494037 108.09020484 110.69591284 100.47665145 104.32421875 93.1640625 C101.92782075 90.39311367 99.63875732 87.56710124 97.375 84.6875 C94.67518999 81.28814408 91.90236291 78.18224476 88.75 75.1875 C87.47839827 73.89658979 86.20764591 72.60484264 84.9375 71.3125 C81.69221377 68.06721377 78.34071555 65.00835657 74.859375 62.01953125 C72.57370454 60.03438413 70.35298622 57.9871017 68.125 55.9375 C48.20150968 38.08437238 25.73378454 23.92224746 1.75 12.1875 C0.94385254 11.7853125 0.13770508 11.383125 -0.69287109 10.96875 C-8.95533168 6.84882861 -16.95621106 3.34699361 -25.90625 0.9765625 C-28.25 0.1875 -28.25 0.1875 -29.25 -1.8125 C-20.90516285 -5.98491857 -8.31542173 -2.75496916 0 0 Z " fill="#0B0101" transform="translate(426.25,238.8125)"/>
<path d="M0 0 C4.06117445 -0.47350016 5.66995375 -0.22501266 9.10546875 2.1171875 C10.14581268 3.02171973 11.17303411 3.94153709 12.1875 4.875 C16.42998662 8.64052551 16.42998662 8.64052551 21 12 C21 13.32 21 14.64 21 16 C20.35417969 16.25652344 19.70835937 16.51304687 19.04296875 16.77734375 C12.2660204 19.53076873 5.61979002 22.51460291 -1 25.625 C-1.8247583 26.00906006 -2.6495166 26.39312012 -3.49926758 26.78881836 C-4.28325928 27.16014893 -5.06725098 27.53147949 -5.875 27.9140625 C-6.92300781 28.4083374 -6.92300781 28.4083374 -7.9921875 28.91259766 C-11.60053577 30.86682713 -13.67220165 32.01660494 -15 36 C-15.08921886 38.07028273 -15.11759651 40.14337589 -15.11352539 42.21557617 C-15.11341209 44.13722847 -15.11341209 44.13722847 -15.11329651 46.09770203 C-15.10818987 47.49612466 -15.10297387 48.8945469 -15.09765625 50.29296875 C-15.09579089 51.72357636 -15.09436754 53.15418461 -15.09336853 54.58479309 C-15.08955267 58.34786751 -15.07973032 62.11090325 -15.06866455 65.8739624 C-15.05843043 69.71479774 -15.05386662 73.55563933 -15.04882812 77.39648438 C-15.03810722 84.9310072 -15.02104196 92.46549818 -15 100 C-18.38000316 99.39946581 -18.89727284 99.12552902 -21.21630859 96.29174805 C-24.11816321 90.6951874 -23.5636153 84.48182166 -23.5390625 78.33203125 C-23.55707888 76.32708147 -23.57510496 74.32213172 -23.59370995 72.31718731 C-23.61489374 69.52437909 -23.61834341 66.73165975 -23.62164307 63.93878174 C-23.62937982 59.03832187 -23.65628881 54.13801062 -23.69662476 49.23771667 C-23.71628043 46.63239817 -23.7255869 44.02697693 -23.72354126 41.42158508 C-23.73050018 40.24323593 -23.73745911 39.06488678 -23.74462891 37.85083008 C-23.74588776 36.8149324 -23.74714661 35.77903473 -23.7484436 34.71174622 C-24.13506108 30.54405855 -25.28859187 28.63910108 -28.3828125 25.859375 C-29.28773438 25.16328125 -30.19265625 24.4671875 -31.125 23.75 C-32.03507813 23.04359375 -32.94515625 22.3371875 -33.8828125 21.609375 C-34.58148437 21.07828125 -35.28015625 20.5471875 -36 20 C-35.921875 17.671875 -35.921875 17.671875 -35 15 C-32.015625 13.453125 -32.015625 13.453125 -28.25 12.25 C-27.01765625 11.84265625 -25.7853125 11.4353125 -24.515625 11.015625 C-21.67659875 10.19546186 -18.90729562 9.51044121 -16 9 C-16 8.34 -16 7.68 -16 7 C-13.70967689 6.16280617 -11.41789043 5.3301071 -9.125 4.5 C-8.47402344 4.26152344 -7.82304688 4.02304687 -7.15234375 3.77734375 C-2.2265625 2 -2.2265625 2 0 2 C0 1.34 0 0.68 0 0 Z " fill="#F5F5F5" transform="translate(715,557)"/>
<path d="M0 0 C13.32328594 4.55352811 21.3802692 16.24437014 27.28588867 28.22680664 C27.92858933 29.55913327 28.56121815 30.89637555 29.18261719 32.23876953 C29.82954172 33.63271027 30.51714292 35.00776569 31.21875 36.375 C32.44891538 40.50835568 32.28766174 44.58783841 32.25 48.875 C32.26160156 50.18404297 32.26160156 50.18404297 32.2734375 51.51953125 C32.25775722 56.73322552 31.69419322 61.0653261 30 66 C29.67 66 29.34 66 29 66 C28.90501221 65.45698242 28.81002441 64.91396484 28.7121582 64.35449219 C26.81379244 53.70561791 24.81932465 43.76648284 20 34 C19.39379625 32.71388785 18.78838003 31.42740432 18.18359375 30.140625 C14.09155022 21.57621381 9.45904256 13.77569508 4 6 C2.65687737 4.00633884 1.32802252 2.0037862 0 0 Z " fill="#F9EBEB" transform="translate(253,297)"/>
<path d="M0 0 C3.4375 1.6875 3.4375 1.6875 6 4 C6.875 6.75 6.875 6.75 7 9 C4.5107319 11.38969738 3.09893865 11.98717462 -0.375 12.4375 C-4.68184557 11.91770829 -6.7557985 10.85798703 -10 8 C-11.0625 5.4375 -11.0625 5.4375 -11 3 C-8.8191426 -1.21632431 -4.14714419 -0.70423203 0 0 Z " fill="#0C0101" transform="translate(584,336)"/>
<path d="M0 0 C3.63526325 1.47141608 5.84429589 3.62618257 7.625 7.0625 C8.15525111 9.9788811 7.97617166 12.05245721 7.625 15.0625 C6.965 15.7225 6.305 16.3825 5.625 17.0625 C1.41202674 17.0625 -0.11157121 16.30302194 -3.25 13.4375 C-5.70797468 9.53365786 -6.05846596 7.590462 -5.375 3.0625 C-3.79910706 0.40836452 -3.07773208 0.08099295 0 0 Z " fill="#0D0101" transform="translate(482.375,453.9375)"/>
<path d="M0 0 C2.9375 0.5625 2.9375 0.5625 4.875 2.125 C6.41623599 5.66077667 5.92443478 7.87794348 4.9375 11.5625 C3.25 14 3.25 14 0.9375 15.5625 C-2.1875 16 -2.1875 16 -5.0625 15.5625 C-7.5540904 11.8251144 -7.52043285 9.98918417 -7.0625 5.5625 C-5.05618753 1.93570439 -4.11364158 0.75556682 0 0 Z " fill="#0D0101" transform="translate(380.0625,290.4375)"/>
<path d="M0 0 C3.47024758 0 6.0126918 0.22088505 8.796875 2.41796875 C11.58416786 5.42426319 12.90165902 7.24136956 13.4375 11.375 C13 14 13 14 12 15 C8.20723308 15.43099624 6.47862614 15.31545814 3.25 13.1875 C0.15788695 10.18127898 -0.96121944 8.74975747 -1.1875 4.375 C-1 1 -1 1 0 0 Z " fill="#0C0101" transform="translate(463,236)"/>
<path d="M0 0 C4.56589388 0.51689365 6.30570478 1.9386626 9.3125 5.375 C9.88623788 8.28193859 9.6630148 10.37058743 9.3125 13.375 C8.3125 14.375 8.3125 14.375 5.0625 14.75 C1.3125 14.375 1.3125 14.375 -1.625 12.375 C-4.41329422 8.31929932 -4.17131366 6.21313656 -3.6875 1.375 C-2.6875 0.375 -2.6875 0.375 0 0 Z " fill="#0E0102" transform="translate(465.6875,306.625)"/>
<path d="M0 0 C2.5625 1.125 2.5625 1.125 4 3 C4.375 6.0625 4.375 6.0625 4 9 C2 11 2 11 -0.49609375 11.08203125 C-1.46675781 10.99308594 -2.43742187 10.90414063 -3.4375 10.8125 C-4.40558594 10.73644531 -5.37367188 10.66039062 -6.37109375 10.58203125 C-9.25886961 9.94268711 -10.27335026 9.36338768 -12 7 C-12.375 4.4375 -12.375 4.4375 -12 2 C-7.95796039 -0.69469307 -4.74137511 -0.53918165 0 0 Z " fill="#0C0101" transform="translate(504,340)"/>
<path d="M0 0 C4.31263327 0.08137044 6.48836517 0.60810949 9.9375 3.25 C12 6 12 6 12.5 8.6875 C12 11 12 11 9 13 C5.27523051 13.4858395 3.44588758 13.24233021 0.125 11.4375 C-2 9 -2 9 -2.4375 5.375 C-2 2 -2 2 0 0 Z " fill="#0C0101" transform="translate(418,268)"/>
<path d="M0 0 C2.625 0.4375 2.625 0.4375 4.9375 2.5 C7.00930032 6.10646723 7.08898201 8.33899228 6.625 12.4375 C4.625 14.4375 4.625 14.4375 1.6875 14.75 C-1.375 14.4375 -1.375 14.4375 -3.046875 13.203125 C-4.73749859 10.95559011 -4.7471743 9.66133091 -4.6875 6.875 C-4.68363281 6.08996094 -4.67976563 5.30492187 -4.67578125 4.49609375 C-4.21696836 1.35590682 -3.04972384 0.56179123 0 0 Z " fill="#090101" transform="translate(512.375,435.5625)"/>
<path d="M0 0 C3.45102209 0.34510221 4.81719344 0.73840807 7.125 3.3125 C7.62905716 6.19282665 7.54729478 7.63213619 6 10.125 C3.21166183 11.89094751 1.35771032 11.77431576 -1.875 11.3125 C-4.3125 9.625 -4.3125 9.625 -5.875 7.3125 C-5.66391617 2.87973966 -4.6712595 0.5077456 0 0 Z " fill="#0C0101" transform="translate(590.875,380.6875)"/>
<path d="M0 0 C6.10643016 0.45232816 6.10643016 0.45232816 8.9375 2.1875 C10.48999822 4.83587932 10.26120016 6.99619814 10 10 C9 11 9 11 5.6875 11.3125 C2 11 2 11 -0.5 9.375 C-2 7 -2 7 -1.8125 3.8125 C-1 1 -1 1 0 0 Z " fill="#0C0101" transform="translate(551,304)"/>
<path d="M0 0 C3.02552967 0.19311891 5.26011831 0.55607099 7.875 2.125 C9.611916 5.01986 9.18630572 7.70859897 9 11 C6.3125 11.8125 6.3125 11.8125 3 12 C-0.16310354 9.66205391 -1.79586798 8.25395382 -2.4375 4.3125 C-2 2 -2 2 0 0 Z " fill="#0C0101" transform="translate(495,264)"/>
<path d="M0 0 C6.57692308 0.57692308 6.57692308 0.57692308 8 2 C8.37086093 7.8410596 8.37086093 7.8410596 8 10 C5 12 5 12 2.4375 11.8125 C0 11 0 11 -2 8 C-2.25 4.9375 -2.25 4.9375 -2 2 C-1.34 1.34 -0.68 0.68 0 0 Z " fill="#130202" transform="translate(463,368)"/>
<path d="M0 0 C1 1 1 1 1.3125 3.8125 C1 7 1 7 -0.6875 9.375 C-3.40202585 11.28250465 -4.7511552 11.43903308 -8 11 C-9 10 -9 10 -9.3125 6.625 C-9 3 -9 3 -7.3125 1.0625 C-4.65262757 -0.15960355 -2.89557056 -0.31303465 0 0 Z " fill="#070001" transform="translate(370,377)"/>
<path d="M0 0 C2.4375 0.25 2.4375 0.25 5 1 C7.4294516 4.6441774 7.16179575 6.71241272 7 11 C5.35 11.33 3.7 11.66 2 12 C-2.04832714 6.72490706 -2.04832714 6.72490706 -1.8125 3.1875 C-1 1 -1 1 0 0 Z " fill="#130202" transform="translate(440,421)"/>
<path d="M0 0 C2.25 -0.3125 2.25 -0.3125 5 0 C7.67690094 2.5322036 8.89306874 4.05900492 9.3125 7.75 C9 10 9 10 8 11 C5.30030316 11.28417861 3.58864909 11.32477191 1.1875 10 C-0.73618446 6.76011038 -0.18282384 3.7174181 0 0 Z " fill="#100102" transform="translate(399,452)"/>
<path d="M0 0 C3.29714793 0.32971479 4.6226839 0.6226839 7 3 C6.43181818 8.56818182 6.43181818 8.56818182 5 10 C2.5625 10.25 2.5625 10.25 0 10 C-2.14915785 6.77626323 -2.38286803 5.73296326 -2 2 C-1.34 1.34 -0.68 0.68 0 0 Z " fill="#170203" transform="translate(386,341)"/>
<path d="M0 0 C5.5952381 0.5952381 5.5952381 0.5952381 8 3 C8.1875 5.5625 8.1875 5.5625 8 8 C7.67 8.33 7.34 8.66 7 9 C0.4 8.4 0.4 8.4 -2 6 C-1.44444444 1.44444444 -1.44444444 1.44444444 0 0 Z " fill="#150203" transform="translate(515,380)"/>
<path d="M0 0 C19.53191489 -0.38297872 19.53191489 -0.38297872 28 2 C28 1.34 28 0.68 28 0 C32.8333472 -0.08333357 37.23692563 0.04738513 42 1 C42 1.33 42 1.66 42 2 C38.7 2 35.4 2 32 2 C32.99 2.99 33.98 3.98 35 5 C33.89785156 4.79503906 32.79570312 4.59007812 31.66015625 4.37890625 C21.09618773 2.48067484 10.72316767 1.39363527 0 1 C0 0.67 0 0.34 0 0 Z " fill="#CB9999" transform="translate(260,258)"/>
<path d="M0 0 C1.99954746 -0.04254356 4.00041636 -0.04080783 6 0 C7 1 7 1 7.125 4 C7 7 7 7 6 8 C3.5 8.125 3.5 8.125 1 8 C0 7 0 7 -0.0625 3.4375 C-0.041875 2.303125 -0.02125 1.16875 0 0 Z " fill="#100202" transform="translate(398,309)"/>
<path d="M0 0 C2.125 0.375 2.125 0.375 4 1 C4.625 3.375 4.625 3.375 5 6 C4.34 6.66 3.68 7.32 3 8 C0.375 7.625 0.375 7.625 -2 7 C-2.125 4.625 -2.125 4.625 -2 2 C-1.34 1.34 -0.68 0.68 0 0 Z " fill="#1D0304" transform="translate(483,405)"/>
<path d="M0 0 C1.65 0.33 3.3 0.66 5 1 C5.625 2.875 5.625 2.875 6 5 C4 7 4 7 1.375 7.125 C0.59125 7.08375 -0.1925 7.0425 -1 7 C-1.625 5.1875 -1.625 5.1875 -2 3 C-1.34 2.01 -0.68 1.02 0 0 Z " fill="#200304" transform="translate(625,414)"/>
<path d="M0 0 C1.2065625 0.0309375 1.2065625 0.0309375 2.4375 0.0625 C3.5625 4.8125 3.5625 4.8125 2.4375 7.0625 C0.4575 7.0625 -1.5225 7.0625 -3.5625 7.0625 C-3.60504356 5.06295254 -3.60330783 3.06208364 -3.5625 1.0625 C-2.5625 0.0625 -2.5625 0.0625 0 0 Z " fill="#150203" transform="translate(418.5625,388.9375)"/>
<path d="M0 0 C0.66 0.33 1.32 0.66 2 1 C-0.26262636 3.32065386 -2.53643006 5.63003599 -4.8125 7.9375 C-5.77639648 8.9265332 -5.77639648 8.9265332 -6.75976562 9.93554688 C-7.38173828 10.56396484 -8.00371094 11.19238281 -8.64453125 11.83984375 C-9.50075073 12.71177368 -9.50075073 12.71177368 -10.37426758 13.60131836 C-12 15 -12 15 -15 16 C-13.48625275 12.42723096 -11.38105612 10.14319629 -8.625 7.4375 C-7.85414063 6.67308594 -7.08328125 5.90867188 -6.2890625 5.12109375 C-4.27286711 3.25284444 -2.23393837 1.59639888 0 0 Z " fill="#CDCDCD" transform="translate(382,214)"/>
<path d="M0 0 C0.66 0.33 1.32 0.66 2 1 C-2.62 5.62 -7.24 10.24 -12 15 C-12.66 14.67 -13.32 14.34 -14 14 C-9.67106815 8.81580806 -5.23435005 4.27293882 0 0 Z " fill="#2D2D2D" transform="translate(230,517)"/>
<path d="M0 0 C1.65 0.33 3.3 0.66 5 1 C5.33 2.65 5.66 4.3 6 6 C3.625 6.625 3.625 6.625 1 7 C0.34 6.34 -0.32 5.68 -1 5 C-0.625 2.375 -0.625 2.375 0 0 Z " fill="#120202" transform="translate(438,303)"/>
<path d="M0 0 C1.65 0 3.3 0 5 0 C5.33 1.65 5.66 3.3 6 5 C3.625 5.625 3.625 5.625 1 6 C0.34 5.34 -0.32 4.68 -1 4 C-0.625 1.875 -0.625 1.875 0 0 Z " fill="#150203" transform="translate(422,333)"/>
<path d="M0 0 C2.77398263 3.46747828 4.95912413 7.06402511 7 11 C6.67 11.66 6.34 12.32 6 13 C3.36 10.03 0.72 7.06 -2 4 C-1.34 3.67 -0.68 3.34 0 3 C0 2.01 0 1.02 0 0 Z " fill="#260406" transform="translate(394,540)"/>
<path d="M0 0 C3 1 3 1 4.203125 2.77734375 C4.54859375 3.49019531 4.8940625 4.20304688 5.25 4.9375 C5.78367188 6.00291016 5.78367188 6.00291016 6.328125 7.08984375 C6.54984375 7.72019531 6.7715625 8.35054687 7 9 C6.67 9.66 6.34 10.32 6 11 C4.79794536 9.93283928 3.61367667 8.84561663 2.4375 7.75 C1.77621094 7.14671875 1.11492187 6.5434375 0.43359375 5.921875 C-1 4 -1 4 -0.71484375 1.765625 C-0.47894531 1.18296875 -0.24304688 0.6003125 0 0 Z " fill="#CA2F30" transform="translate(245,620)"/>
<path d="M0 0 C0 3 0 3 -2.1875 5.48046875 C-3.115625 6.37378906 -4.04375 7.26710937 -5 8.1875 C-5.928125 9.08855469 -6.85625 9.98960937 -7.8125 10.91796875 C-8.534375 11.60503906 -9.25625 12.29210937 -10 13 C-10.66 12.67 -11.32 12.34 -12 12 C-8.32167983 7.47384007 -4.58913637 3.60575001 0 0 Z " fill="#2F2F2F" transform="translate(231,233)"/>
<path d="M0 0 C0.66 0.33 1.32 0.66 2 1 C2 3.31 2 5.62 2 8 C1.34 7.34 0.68 6.68 0 6 C-0.99 8.31 -1.98 10.62 -3 13 C-3.93045933 10.44855176 -4.08564091 9.25993522 -3.22265625 6.640625 C-2.83980469 5.85171875 -2.45695312 5.0628125 -2.0625 4.25 C-1.68222656 3.45078125 -1.30195313 2.6515625 -0.91015625 1.828125 C-0.60980469 1.22484375 -0.30945313 0.6215625 0 0 Z " fill="#EAB4B5" transform="translate(432,775)"/>
<path d="M0 0 C0.66 0.33 1.32 0.66 2 1 C0.90033225 2.29549899 -0.20491801 3.58626071 -1.3125 4.875 C-1.92738281 5.59429687 -2.54226563 6.31359375 -3.17578125 7.0546875 C-5 9 -5 9 -8 11 C-6.52670958 5.99081256 -3.72484762 3.48192278 0 0 Z " fill="#272727" transform="translate(306,180)"/>
<path d="M0 0 C0.33 0 0.66 0 1 0 C1 4.95 1 9.9 1 15 C0.67 15 0.34 15 0 15 C-0.33 12.03 -0.66 9.06 -1 6 C-1.99 6.66 -2.98 7.32 -4 8 C-2.87548273 5.0280615 -1.77706209 2.66559313 0 0 Z " fill="#F1CCCC" transform="translate(597,795)"/>
<path d="M0 0 C0.33 0 0.66 0 1 0 C0.53680089 4.72463088 -0.09891706 8.17057052 -3 12 C-3.66 12 -4.32 12 -5 12 C-3.68938409 7.76570244 -2.05643741 3.92592596 0 0 Z " fill="#AA1619" transform="translate(495,662)"/>
<path d="M0 0 C2.672336 3.56311466 3.77263971 5.84585747 5 10 C4.01 9.67 3.02 9.34 2 9 C1.67 9.99 1.34 10.98 1 12 C0.67 8.04 0.34 4.08 0 0 Z " fill="#2A0406" transform="translate(424,497)"/>
<path d="M0 0 C0.66 0 1.32 0 2 0 C3.98 3.96 5.96 7.92 8 12 C7.34 12 6.68 12 6 12 C4.4921875 10.13671875 4.4921875 10.13671875 2.875 7.6875 C2.33617187 6.88699219 1.79734375 6.08648437 1.2421875 5.26171875 C0 3 0 3 0 0 Z " fill="#340607" transform="translate(544,346)"/>
<path d="M0 0 C3.48331435 3.01887244 4.79157144 5.56909529 6 10 C4.68 10 3.36 10 2 10 C1.34 6.7 0.68 3.4 0 0 Z " fill="#290305" transform="translate(611,465)"/>
<path d="M0 0 C3.21676586 1.60838293 3.64670854 4.78593279 5 8 C5.66 8.66 6.32 9.32 7 10 C4.625 9.6875 4.625 9.6875 2 9 C-0.29013653 5.5647952 -0.17842973 4.014669 0 0 Z " fill="#B7171B" transform="translate(491,266)"/>
<path d="M0 0 C1.485 0.99 1.485 0.99 3 2 C3.29296875 4.8203125 3.29296875 4.8203125 3.1875 8.125 C3.16042969 9.22070312 3.13335937 10.31640625 3.10546875 11.4453125 C3.07066406 12.28835938 3.03585938 13.13140625 3 14 C0.81005752 10.71508627 0.64722661 9.16904361 0.375 5.3125 C0.30023438 4.31863281 0.22546875 3.32476563 0.1484375 2.30078125 C0.09945312 1.54152344 0.05046875 0.78226563 0 0 Z " fill="#EDBFC0" transform="translate(242,600)"/>
<path d="M0 0 C0.33 0 0.66 0 1 0 C1 4.29 1 8.58 1 13 C-1.33061852 9.50407222 -1.70295038 7.15869464 -2 3 C-1.34 2.01 -0.68 1.02 0 0 Z " fill="#DC1C22" transform="translate(501,557)"/>
<path d="M0 0 C3.26008643 3.16952847 6.22237877 6.39937989 9 10 C8.01 10.495 8.01 10.495 7 11 C5.82439821 9.73742767 4.65977135 8.46462916 3.5 7.1875 C2.8503125 6.47980469 2.200625 5.77210938 1.53125 5.04296875 C0 3 0 3 0 0 Z " fill="#B8161B" transform="translate(519,318)"/>
<path d="M0 0 C1.13732426 3.40401948 0.83989957 5.77456664 0.0625 9.25 C-0.13214844 10.14203125 -0.32679688 11.0340625 -0.52734375 11.953125 C-0.68332031 12.62859375 -0.83929687 13.3040625 -1 14 C-1.33 14 -1.66 14 -2 14 C-2 10.04 -2 6.08 -2 2 C-1.34 2 -0.68 2 0 2 C0 1.34 0 0.68 0 0 Z " fill="#861114" transform="translate(619,644)"/>
<path d="M0 0 C3.37503669 1.1858237 5.64722731 2.27573689 8 5 C6.25 5.75 6.25 5.75 4 6 C1.75 4.1875 1.75 4.1875 0 2 C0 1.34 0 0.68 0 0 Z " fill="#B3B3B3" transform="translate(526,555)"/>
<path d="M0 0 C3.36591866 1.44253657 5.51047079 3.33264727 8 6 C7.01 6.33 6.02 6.66 5 7 C4.731875 6.360625 4.46375 5.72125 4.1875 5.0625 C3.11332248 2.66868314 3.11332248 2.66868314 0 2 C0 1.34 0 0.68 0 0 Z " fill="#401F21" transform="translate(633,376)"/>
<path d="M0 0 C0.6875 1.6875 0.6875 1.6875 1 4 C-0.3125 6.75 -0.3125 6.75 -2 9 C-2.66 9 -3.32 9 -4 9 C-2.94124926 5.59687262 -1.99097846 2.98646769 0 0 Z " fill="#AE1519" transform="translate(606,656)"/>
<path d="M0 0 C0.33 0 0.66 0 1 0 C2.10228696 4.40914783 2.07654536 8.48382401 2 13 C1.67 13 1.34 13 1 13 C1 11.02 1 9.04 1 7 C0.34 7 -0.32 7 -1 7 C-0.67 4.69 -0.34 2.38 0 0 Z " fill="#911215" transform="translate(587,514)"/>
<path d="M0 0 C1.65 1.65 3.3 3.3 5 5 C4.01 5.495 4.01 5.495 3 6 C2.34 6.99 1.68 7.98 1 9 C0.67 6.03 0.34 3.06 0 0 Z " fill="#371E1F" transform="translate(264,429)"/>
<path d="M0 0 C0 0.66 0 1.32 0 2 C-3.63 1.34 -7.26 0.68 -11 0 C-11 -0.33 -11 -0.66 -11 -1 C-3.57142857 -2.42857143 -3.57142857 -2.42857143 0 0 Z " fill="#9D1316" transform="translate(588,336)"/>
</svg>
